<svg xmlns="http://www.w3.org/2000/svg" width="481" height="355" viewBox="0 0 481 355">
<g>
<path d="M 159.67 333.75 C159.15,334.58 156.21,335.00 150.94,335.00 L 150.57 335.00 C146.42,335.00 144.19,335.00 143.45,333.95 C142.60,332.74 143.75,330.11 146.25,324.43 L 146.44 323.99 C150.40,314.99 156.00,299.47 156.00,297.51 C156.00,296.73 154.31,295.89 151.94,295.49 C147.45,294.73 134.00,288.36 134.00,287.00 C134.00,286.52 139.32,286.14 145.82,286.15 C159.18,286.17 165.03,284.72 176.98,278.44 C197.57,267.62 216.03,239.33 222.95,208.00 C224.10,202.77 225.28,197.42 225.58,196.11 C225.96,194.38 226.41,194.01 227.20,194.80 C228.81,196.41 229.44,210.13 228.09,214.21 C227.46,216.13 226.54,220.17 226.05,223.20 C225.56,226.22 224.27,230.67 223.20,233.10 C221.10,237.82 218.22,249.05 218.16,252.77 C218.05,259.28 198.67,282.14 187.01,289.49 C176.96,295.84 173.67,300.68 164.61,322.50 C162.33,328.00 160.11,333.06 159.67,333.75 Z" fill="rgb(16,62,121)"/>
<path d="M 218.02 253.79 C218.11,253.42 218.15,253.07 218.16,252.77 C218.22,249.05 221.10,237.82 223.20,233.10 C224.27,230.67 225.56,226.22 226.05,223.20 C226.54,220.17 227.46,216.13 228.09,214.21 C229.44,210.13 228.81,196.41 227.20,194.80 C226.41,194.01 225.96,194.38 225.58,196.11 C225.38,196.97 224.80,199.60 224.10,202.79 C225.25,197.03 225.86,192.06 225.57,190.59 L 224.98 187.63 L 227.41 189.92 C230.67,192.98 232.41,200.62 231.57,208.10 C230.69,215.84 225.03,236.40 220.67,247.71 C219.96,249.52 219.04,251.65 218.02,253.79 ZM 217.29 165.12 C209.69,166.36 202.00,166.84 202.00,166.07 C202.00,165.63 205.00,164.97 208.67,164.59 C213.16,164.13 215.78,163.35 216.67,162.20 C217.91,160.61 218.10,160.63 219.54,162.50 C221.02,164.41 220.91,164.53 217.29,165.12 ZM 231.00 144.17 C231.00,146.19 230.23,146.43 228.09,145.08 C226.88,144.31 226.90,143.95 228.22,142.64 C229.96,140.89 231.00,141.46 231.00,144.17 ZM 238.00 126.12 C238.00,128.56 236.80,128.52 235.24,126.01 C233.58,123.35 233.66,123.10 236.00,123.71 C237.11,124.00 238.00,125.07 238.00,126.12 ZM 215.00 155.65 C215.00,155.84 214.10,156.00 213.00,156.00 C211.62,156.00 211.00,155.33 211.00,153.85 C211.00,151.75 211.06,151.74 213.00,153.50 C214.10,154.50 215.00,155.47 215.00,155.65 ZM 123.50 207.01 C122.49,208.63 120.73,208.13 121.39,206.42 C121.73,205.55 122.01,204.31 122.03,203.67 C122.05,203.03 122.52,203.29 123.08,204.26 C123.65,205.22 123.83,206.46 123.50,207.01 ZM 222.80 208.66 C219.91,221.42 215.12,233.65 209.06,244.38 C214.92,233.85 219.64,221.73 222.80,208.66 ZM 201.25 277.10 C206.05,272.08 210.61,266.56 213.78,261.90 C213.42,262.51 213.08,263.07 212.75,263.57 C210.46,267.14 206.02,272.26 201.25,277.10 Z" fill="rgb(43,70,93)"/>
<path d="M 222.80 208.66 C222.43,210.18 222.04,211.69 221.63,213.18 C221.65,212.48 221.46,212.22 221.04,212.48 C220.47,212.83 220.00,212.95 220.00,212.74 C220.00,212.54 219.53,209.70 218.97,206.43 C217.34,197.11 215.46,193.78 209.68,189.94 L 204.50 186.50 L 190.47 186.18 C177.80,185.89 176.27,186.04 174.75,187.73 C173.25,189.38 173.05,192.78 172.97,217.28 C172.92,232.50 173.29,245.69 173.78,246.57 C174.28,247.46 176.22,248.55 178.09,248.99 C186.88,251.06 189.37,249.29 190.39,240.24 C190.77,236.90 191.62,233.77 192.29,233.26 C192.96,232.76 197.08,231.60 201.45,230.68 C207.99,229.31 209.92,228.44 212.32,225.81 C214.98,222.90 215.35,222.76 216.48,224.31 C217.10,225.16 217.48,225.43 217.93,224.83 C215.40,231.79 212.42,238.35 209.06,244.38 C200.35,259.79 189.03,272.11 176.98,278.44 C165.03,284.72 159.18,286.17 145.82,286.15 C139.32,286.14 134.00,286.52 134.00,287.00 C134.00,288.36 147.45,294.73 151.94,295.49 C154.31,295.89 156.00,296.73 156.00,297.51 C156.00,299.47 150.40,314.99 146.44,323.99 L 146.25 324.43 C144.75,327.85 143.73,330.16 143.35,331.73 C143.47,329.79 142.43,329.20 141.76,331.23 C141.43,332.20 140.17,332.16 135.92,331.07 C132.94,330.30 129.38,329.58 128.00,329.47 C122.59,329.04 112.30,326.64 108.50,324.92 C95.93,319.25 86.88,314.62 86.24,313.53 C85.83,312.85 83.59,311.09 81.25,309.63 C78.91,308.17 77.00,306.50 77.00,305.93 C77.00,305.35 76.44,305.21 75.75,305.60 C75.06,306.00 74.83,305.95 75.24,305.50 C75.65,305.05 75.50,304.11 74.92,303.40 C73.83,302.10 75.83,296.37 78.54,293.00 C79.20,292.17 80.04,289.87 80.39,287.89 C80.75,285.90 81.93,283.47 83.02,282.48 C84.39,281.25 85.00,279.41 85.00,276.55 C85.00,274.27 85.54,271.86 86.20,271.20 C88.14,269.26 87.67,255.83 85.42,248.76 C85.07,247.65 83.03,243.98 80.90,240.62 C78.77,237.25 77.01,233.93 77.01,233.23 C77.00,232.53 75.88,230.27 74.52,228.20 C71.32,223.38 63.58,190.96 62.41,177.50 C62.07,173.65 60.99,167.57 59.99,164.00 C59.00,160.43 57.91,155.86 57.57,153.85 C57.23,151.84 56.28,149.65 55.47,148.98 C54.66,148.31 54.00,146.38 54.00,144.70 C54.00,143.02 53.47,140.16 52.81,138.36 C51.79,135.52 51.88,134.79 53.46,133.04 C55.04,131.30 56.07,131.10 60.90,131.64 C63.98,131.99 67.75,132.99 69.28,133.87 C73.34,136.20 80.01,145.59 82.53,152.50 C83.73,155.80 85.22,159.77 85.85,161.32 C86.48,162.86 87.00,164.94 87.00,165.93 C87.00,166.92 87.82,168.80 88.82,170.12 C89.82,171.43 91.22,173.97 91.94,175.76 C92.69,177.62 94.19,179.26 95.42,179.57 C97.95,180.20 102.45,178.69 103.62,176.81 C105.84,173.24 109.79,159.54 111.98,147.82 C112.46,145.25 113.54,142.10 114.37,140.82 C115.20,139.55 116.33,135.73 116.87,132.33 C117.42,128.94 118.61,124.73 119.51,122.97 C120.42,121.21 121.41,117.24 121.70,114.14 C121.99,111.04 122.86,107.50 123.62,106.29 C124.38,105.07 125.00,103.20 125.00,102.13 C125.00,101.07 126.81,94.42 129.02,87.35 C131.22,80.28 133.54,71.75 134.16,68.38 C136.34,56.63 143.35,50.42 150.87,53.59 C155.72,55.63 156.40,61.96 153.07,74.00 C152.03,77.75 150.86,83.89 150.46,87.66 C150.07,91.42 148.86,96.24 147.79,98.38 C146.71,100.51 145.58,104.79 145.27,107.88 C144.96,110.97 143.70,115.75 142.47,118.50 C141.24,121.25 139.66,127.43 138.96,132.24 C137.68,140.96 137.69,141.00 140.09,143.15 C141.90,144.77 142.04,145.15 140.67,144.66 C139.44,144.22 138.97,144.41 139.24,145.25 C139.47,145.94 140.90,146.65 142.43,146.83 C144.03,147.01 144.96,146.74 144.62,146.19 C144.29,145.66 144.86,145.01 145.87,144.74 C147.96,144.20 150.98,135.18 153.00,123.50 C153.66,119.65 154.88,114.58 155.70,112.22 C156.51,109.87 157.26,105.53 157.34,102.57 C157.43,99.62 157.68,97.37 157.90,97.58 C158.85,98.50 163.08,87.23 164.05,81.20 C164.63,77.56 165.74,73.21 166.52,71.54 C167.30,69.87 168.38,66.03 168.91,63.00 C171.01,51.17 172.09,47.57 174.45,44.48 C177.52,40.46 181.80,39.46 186.46,41.68 C192.55,44.58 192.90,47.73 189.00,64.00 C188.01,68.12 186.88,73.75 186.50,76.50 C186.12,79.25 185.39,82.28 184.88,83.22 C184.37,84.17 183.53,88.34 183.00,92.48 C182.48,96.62 181.36,101.33 180.52,102.95 C179.69,104.57 179.00,107.53 179.00,109.52 C179.00,111.50 178.47,114.11 177.82,115.32 C177.17,116.52 176.08,119.75 175.40,122.50 C174.72,125.25 173.42,130.20 172.52,133.50 C169.20,145.69 170.37,154.00 175.40,154.00 C178.23,154.00 179.61,152.50 180.50,148.49 C180.87,146.85 181.99,143.25 183.00,140.50 C184.01,137.75 185.08,133.74 185.38,131.59 C185.68,129.43 186.30,127.30 186.75,126.85 C187.71,125.89 198.87,138.85 201.51,143.99 C203.06,147.01 203.15,148.23 202.19,152.99 C201.58,156.02 201.18,159.40 201.29,160.50 C201.44,161.96 200.83,162.57 199.00,162.77 C196.21,163.08 189.19,164.70 184.24,166.18 C182.42,166.73 181.26,167.62 181.62,168.19 C181.97,168.76 181.67,169.58 180.96,170.02 C179.07,171.20 184.93,174.49 193.46,177.04 C197.33,178.20 202.18,180.24 204.23,181.57 C206.28,182.91 209.09,184.00 210.48,184.00 C211.87,184.00 214.69,184.90 216.74,186.00 C218.79,187.10 221.04,188.00 221.74,188.00 C222.43,188.00 223.00,188.36 223.00,188.81 C223.00,189.25 223.71,190.49 224.57,191.56 C225.06,192.17 225.39,192.57 225.60,192.73 C225.45,195.06 224.91,198.73 224.10,202.79 C223.73,204.44 223.34,206.22 222.95,208.00 C222.90,208.22 222.85,208.44 222.80,208.66 ZM 98.27 248.98 C101.57,250.30 103.06,250.16 107.75,248.03 C110.28,246.88 112.06,245.37 112.15,244.30 C112.24,243.31 112.35,241.84 112.40,241.03 C112.57,238.54 117.15,236.97 123.40,237.24 C129.63,237.51 129.56,237.46 132.55,244.21 C133.45,246.26 135.14,248.23 136.30,248.59 C140.02,249.78 146.37,249.69 148.82,248.42 C150.74,247.42 151.85,247.46 154.57,248.59 C159.74,250.75 163.72,250.37 166.66,247.43 C168.91,245.18 169.15,244.33 168.54,240.68 C168.16,238.38 167.91,225.66 167.97,212.41 C168.06,193.80 167.79,188.08 166.79,187.27 C164.30,185.26 157.41,184.74 155.71,186.44 C154.85,187.30 153.68,188.00 153.11,188.00 C151.40,188.00 150.03,191.44 151.09,193.05 C152.21,194.76 151.16,231.73 149.93,234.00 C149.33,235.11 148.58,234.20 147.01,230.50 C145.85,227.75 144.31,224.38 143.60,223.00 C142.89,221.62 141.73,218.25 141.02,215.50 C138.86,207.06 136.05,198.73 134.64,196.56 C133.91,195.43 132.99,192.84 132.62,190.81 C131.88,186.86 131.39,186.56 123.89,185.54 C119.22,184.91 113.57,186.49 114.58,188.13 C114.87,188.60 114.47,188.73 113.69,188.43 C112.63,188.03 111.59,190.15 109.64,196.69 C108.19,201.54 106.50,206.85 105.88,208.50 C105.26,210.15 103.90,214.88 102.86,219.00 C101.82,223.12 100.36,227.62 99.62,229.00 C98.88,230.38 97.46,234.13 96.47,237.34 C95.01,242.07 94.92,243.33 95.98,243.99 C96.70,244.43 97.01,245.54 96.66,246.44 C96.23,247.55 96.75,248.36 98.27,248.98 ZM 207.48 125.75 C206.70,128.61 205.84,128.58 202.22,125.53 C198.39,122.31 194.20,120.76 191.04,121.40 C189.64,121.69 189.05,121.68 189.72,121.39 C190.66,120.98 190.60,120.32 189.48,118.61 C188.17,116.61 188.21,115.72 189.88,110.43 C190.91,107.17 192.21,102.25 192.77,99.50 C193.34,96.75 194.47,92.70 195.30,90.50 C196.75,86.66 197.04,85.43 198.59,76.50 C199.17,73.20 203.15,63.69 204.64,62.06 C205.64,60.97 214.55,62.23 215.30,63.58 C215.75,64.38 216.52,64.80 217.01,64.49 C218.62,63.50 219.33,71.33 218.23,77.98 C214.99,97.60 213.72,103.56 209.93,117.00 C208.93,120.57 207.82,124.51 207.48,125.75 ZM 225.73 137.75 C224.49,139.33 221.76,139.36 220.20,137.80 C218.47,136.07 218.72,127.36 220.58,124.53 C221.44,123.20 222.47,118.83 222.87,114.81 C223.73,106.11 228.32,96.72 231.99,96.17 C238.66,95.16 240.48,98.20 237.50,105.35 C236.68,107.32 236.00,110.90 236.00,113.30 C236.00,115.70 235.71,117.95 235.36,118.31 C235.01,118.66 233.36,117.80 231.71,116.41 C228.71,113.89 228.67,113.88 226.73,115.82 C224.92,117.64 224.84,118.46 225.74,127.14 C226.36,133.20 226.36,136.94 225.73,137.75 ZM 199.00 213.00 C196.91,215.09 196.44,215.21 194.02,214.26 C189.49,212.48 188.44,206.21 192.22,203.56 C193.44,202.70 195.02,202.00 195.72,202.00 C197.87,202.00 201.00,205.85 201.00,208.50 C201.00,209.88 200.10,211.90 199.00,213.00 ZM 123.00 218.88 C123.00,222.34 121.52,223.10 120.72,220.04 C120.44,218.96 120.84,217.55 121.60,216.91 C122.75,215.96 123.00,216.32 123.00,218.88 ZM 143.17 332.88 C143.17,333.32 143.26,333.67 143.45,333.95 C144.12,334.91 146.02,334.99 149.48,335.00 C143.15,334.99 142.81,334.87 143.17,332.88 ZM 224.98 187.63 L 225.57 190.59 C225.60,190.75 225.62,190.94 225.63,191.18 C225.59,190.97 225.54,190.75 225.49,190.50 L 224.84 187.50 ZM 230.59 195.69 C231.67,199.23 232.07,203.67 231.57,208.10 C232.07,203.70 231.67,199.24 230.59,195.69 Z" fill="rgb(45,101,172)"/>
<path d="M 143.17 332.88 C143.00,333.81 142.99,334.34 143.68,334.63 C141.03,334.46 138.27,334.20 135.60,333.86 C113.62,331.04 90.15,320.92 76.24,308.28 L 70.99 303.50 L 75.59 293.50 C78.11,288.00 81.55,279.45 83.21,274.50 C87.99,260.28 87.30,257.26 72.92,229.61 C67.99,220.14 64.79,208.03 62.57,190.50 C60.55,174.60 58.33,164.93 53.05,149.15 C48.39,135.20 48.14,132.71 51.22,130.56 C54.43,128.31 64.12,128.51 68.84,130.92 C77.26,135.21 81.56,141.91 88.91,162.14 C93.47,174.70 96.73,179.27 99.79,177.39 C102.28,175.86 104.49,168.62 119.00,114.41 C126.20,87.51 132.83,63.47 133.73,61.00 C136.92,52.16 143.96,48.29 151.26,51.34 C155.89,53.27 158.34,57.09 158.32,62.33 C158.31,64.62 154.18,83.19 149.15,103.58 C144.12,123.98 140.00,141.39 140.00,142.27 C140.00,144.08 143.76,145.64 145.05,144.35 C145.52,143.88 151.37,121.67 158.06,95.00 C164.75,68.32 170.84,45.29 171.60,43.81 C173.73,39.68 176.88,38.00 182.50,38.00 C188.20,38.00 191.26,39.68 193.51,44.01 C193.85,44.67 194.14,45.24 194.38,45.83 C196.08,50.05 194.75,55.49 183.29,102.22 L 182.97 103.50 C171.92,148.56 171.74,149.58 174.58,150.67 C174.69,150.71 174.80,150.76 174.90,150.80 C175.37,150.98 175.76,151.14 176.14,151.11 C178.41,150.91 180.05,143.76 192.07,94.00 C195.33,80.53 198.66,68.03 199.48,66.24 C204.14,56.07 218.90,57.18 222.09,67.94 C222.97,70.91 222.56,74.17 219.63,87.50 C212.96,117.94 209.64,132.50 209.28,132.96 C209.07,133.22 207.92,132.79 206.70,132.01 C205.49,131.23 203.14,129.89 201.48,129.02 C199.81,128.15 196.76,126.16 194.70,124.58 C192.63,123.01 190.76,121.91 190.52,122.14 C190.29,122.37 191.54,124.45 193.30,126.76 C197.69,132.52 202.13,138.71 204.40,142.24 C206.08,144.85 206.16,145.78 205.15,150.17 C203.58,156.96 203.71,159.95 205.58,160.67 C207.67,161.47 209.65,159.30 210.74,155.01 L 211.00 153.97 C211.04,155.37 211.66,156.00 213.00,156.00 C213.76,156.00 214.42,155.93 214.76,155.82 L 216.30 157.94 C217.44,159.50 218.46,160.96 219.24,162.11 C218.07,160.64 217.82,160.73 216.67,162.20 C215.78,163.35 213.16,164.13 208.67,164.59 C205.00,164.97 202.00,165.63 202.00,166.07 C202.00,166.48 204.27,166.54 207.56,166.30 C199.65,167.16 190.72,168.01 188.61,168.02 C182.41,168.04 180.93,169.51 185.63,170.98 C194.29,173.71 214.79,181.43 219.00,183.55 C222.19,185.16 224.77,187.06 226.75,189.30 L 224.98 187.63 L 224.98 187.63 L 224.84 187.50 L 225.49 190.50 C225.54,190.75 225.59,190.97 225.63,191.18 C225.65,191.59 225.64,192.11 225.60,192.73 C225.39,192.57 225.06,192.17 224.57,191.56 C223.71,190.49 223.00,189.25 223.00,188.81 C223.00,188.36 222.43,188.00 221.74,188.00 C221.04,188.00 218.79,187.10 216.74,186.00 C214.69,184.90 211.87,184.00 210.48,184.00 C209.09,184.00 206.28,182.91 204.23,181.57 C202.18,180.24 197.33,178.20 193.46,177.04 C184.93,174.49 179.07,171.20 180.96,170.02 C181.67,169.58 181.97,168.76 181.62,168.19 C181.26,167.62 182.42,166.73 184.24,166.18 C189.19,164.70 196.21,163.08 199.00,162.77 C200.83,162.57 201.44,161.96 201.29,160.50 C201.18,159.40 201.58,156.02 202.19,152.99 C203.15,148.23 203.06,147.01 201.51,143.99 C198.87,138.85 187.71,125.89 186.75,126.85 C186.30,127.30 185.68,129.43 185.38,131.59 C185.08,133.74 184.01,137.75 183.00,140.50 C181.99,143.25 180.87,146.85 180.50,148.49 C179.61,152.50 178.23,154.00 175.40,154.00 C170.37,154.00 169.20,145.69 172.52,133.50 C173.42,130.20 174.72,125.25 175.40,122.50 C176.08,119.75 177.17,116.52 177.82,115.32 C178.47,114.11 179.00,111.50 179.00,109.52 C179.00,107.53 179.69,104.57 180.52,102.95 C181.36,101.33 182.48,96.62 183.00,92.48 C183.53,88.34 184.37,84.17 184.88,83.22 C185.39,82.28 186.12,79.25 186.50,76.50 C186.88,73.75 188.01,68.12 189.00,64.00 C192.90,47.73 192.55,44.58 186.46,41.68 C181.80,39.46 177.52,40.46 174.45,44.48 C172.09,47.57 171.01,51.17 168.91,63.00 C168.38,66.03 167.30,69.87 166.52,71.54 C165.74,73.21 164.63,77.56 164.05,81.20 C163.08,87.23 158.85,98.50 157.90,97.58 C157.68,97.37 157.43,99.62 157.34,102.57 C157.26,105.53 156.51,109.87 155.70,112.22 C154.88,114.58 153.66,119.65 153.00,123.50 C150.98,135.18 147.96,144.20 145.87,144.74 C144.86,145.01 144.29,145.66 144.62,146.19 C144.96,146.74 144.03,147.01 142.43,146.83 C140.90,146.65 139.47,145.94 139.24,145.25 C138.97,144.41 139.44,144.22 140.67,144.66 C142.04,145.15 141.90,144.77 140.09,143.15 C137.69,141.00 137.68,140.96 138.96,132.24 C139.66,127.43 141.24,121.25 142.47,118.50 C143.70,115.75 144.96,110.97 145.27,107.88 C145.58,104.79 146.71,100.51 147.79,98.38 C148.86,96.24 150.07,91.42 150.46,87.66 C150.86,83.89 152.03,77.75 153.07,74.00 C156.40,61.96 155.72,55.63 150.87,53.59 C143.35,50.42 136.34,56.63 134.16,68.38 C133.54,71.75 131.22,80.28 129.02,87.35 C126.81,94.42 125.00,101.07 125.00,102.13 C125.00,103.20 124.38,105.07 123.62,106.29 C122.86,107.50 121.99,111.04 121.70,114.14 C121.41,117.24 120.42,121.21 119.51,122.97 C118.61,124.73 117.42,128.94 116.87,132.33 C116.33,135.73 115.20,139.55 114.37,140.82 C113.54,142.10 112.46,145.25 111.98,147.82 C109.79,159.54 105.84,173.24 103.62,176.81 C102.45,178.69 97.95,180.20 95.42,179.57 C94.19,179.26 92.69,177.62 91.94,175.76 C91.22,173.97 89.82,171.43 88.82,170.12 C87.82,168.80 87.00,166.92 87.00,165.93 C87.00,164.94 86.48,162.86 85.85,161.32 C85.22,159.77 83.73,155.80 82.53,152.50 C80.01,145.59 73.34,136.20 69.28,133.87 C67.75,132.99 63.98,131.99 60.90,131.64 C56.07,131.10 55.04,131.30 53.46,133.04 C51.88,134.79 51.79,135.52 52.81,138.36 C53.47,140.16 54.00,143.02 54.00,144.70 C54.00,146.38 54.66,148.31 55.47,148.98 C56.28,149.65 57.23,151.84 57.57,153.85 C57.91,155.86 59.00,160.43 59.99,164.00 C60.99,167.57 62.07,173.65 62.41,177.50 C63.58,190.96 71.32,223.38 74.52,228.20 C75.88,230.27 77.00,232.53 77.01,233.23 C77.01,233.93 78.77,237.25 80.90,240.62 C83.03,243.98 85.07,247.65 85.42,248.76 C87.67,255.83 88.14,269.26 86.20,271.20 C85.54,271.86 85.00,274.27 85.00,276.55 C85.00,279.41 84.39,281.25 83.02,282.48 C81.93,283.47 80.75,285.90 80.39,287.89 C80.04,289.87 79.20,292.17 78.54,293.00 C75.83,296.37 73.83,302.10 74.92,303.40 C75.50,304.11 75.65,305.05 75.24,305.50 C74.83,305.95 75.06,306.00 75.75,305.60 C76.44,305.21 77.00,305.35 77.00,305.93 C77.00,306.50 78.91,308.17 81.25,309.63 C83.59,311.09 85.83,312.85 86.24,313.53 C86.88,314.62 95.93,319.25 108.50,324.92 C112.30,326.64 122.59,329.04 128.00,329.47 C129.38,329.58 132.94,330.30 135.92,331.07 C140.17,332.16 141.43,332.20 141.76,331.23 C142.43,329.20 143.47,329.79 143.35,331.73 C143.24,332.17 143.18,332.55 143.17,332.88 ZM 98.27 248.98 C96.75,248.36 96.23,247.55 96.66,246.44 C97.01,245.54 96.70,244.43 95.98,243.99 C94.92,243.33 95.01,242.07 96.47,237.34 C97.46,234.13 98.88,230.38 99.62,229.00 C100.36,227.62 101.82,223.12 102.86,219.00 C103.90,214.88 105.26,210.15 105.88,208.50 C106.50,206.85 108.19,201.54 109.64,196.69 C111.59,190.15 112.63,188.03 113.69,188.43 C114.47,188.73 114.87,188.60 114.58,188.13 C113.57,186.49 119.22,184.91 123.89,185.54 C131.39,186.56 131.88,186.86 132.62,190.81 C132.99,192.84 133.91,195.43 134.64,196.56 C136.05,198.73 138.86,207.06 141.02,215.50 C141.73,218.25 142.89,221.62 143.60,223.00 C144.31,224.38 145.85,227.75 147.01,230.50 C148.58,234.20 149.33,235.11 149.93,234.00 C151.16,231.73 152.21,194.76 151.09,193.05 C150.03,191.44 151.40,188.00 153.11,188.00 C153.68,188.00 154.85,187.30 155.71,186.44 C157.41,184.74 164.30,185.26 166.79,187.27 C167.79,188.08 168.06,193.80 167.97,212.41 C167.91,225.66 168.16,238.38 168.54,240.68 C169.15,244.33 168.91,245.18 166.66,247.43 C163.72,250.37 159.74,250.75 154.57,248.59 C151.85,247.46 150.74,247.42 148.82,248.42 C146.37,249.69 140.02,249.78 136.30,248.59 C135.14,248.23 133.45,246.26 132.55,244.21 C129.56,237.46 129.63,237.51 123.40,237.24 C117.15,236.97 112.57,238.54 112.40,241.03 C112.35,241.84 112.24,243.31 112.15,244.30 C112.06,245.37 110.28,246.88 107.75,248.03 C103.06,250.16 101.57,250.30 98.27,248.98 ZM 221.04 212.48 C221.46,212.22 221.65,212.48 221.63,213.18 C220.54,217.16 219.30,221.05 217.93,224.83 C217.48,225.43 217.10,225.16 216.48,224.31 C215.35,222.76 214.98,222.90 212.32,225.81 C209.92,228.44 207.99,229.31 201.45,230.68 C197.08,231.60 192.96,232.76 192.29,233.26 C191.62,233.77 190.77,236.90 190.39,240.24 C189.37,249.29 186.88,251.06 178.09,248.99 C176.22,248.55 174.28,247.46 173.78,246.57 C173.29,245.69 172.92,232.50 172.97,217.28 C173.05,192.78 173.25,189.38 174.75,187.73 C176.27,186.04 177.80,185.89 190.47,186.18 L 204.50 186.50 L 209.68 189.94 C215.46,193.78 217.34,197.11 218.97,206.43 C219.53,209.70 220.00,212.54 220.00,212.74 C220.00,212.95 220.47,212.83 221.04,212.48 ZM 176.67 246.33 C177.03,246.70 179.68,247.00 182.55,247.00 C188.67,247.00 188.96,246.49 188.99,235.75 L 189.00 229.00 L 194.25 228.99 C201.58,228.99 206.45,227.42 210.68,223.71 C215.32,219.64 217.01,215.50 216.98,208.28 C216.95,200.22 214.31,194.84 208.84,191.69 C204.87,189.40 203.28,189.15 190.25,188.82 L 176.00 188.46 L 176.00 217.06 C176.00,232.79 176.30,245.97 176.67,246.33 ZM 97.00 245.83 C97.00,246.59 99.07,247.00 102.99,247.00 L 108.97 247.00 L 110.74 241.00 L 112.50 235.00 L 132.74 235.00 L 134.03 239.75 C134.73,242.36 135.75,245.06 136.28,245.75 C137.35,247.14 147.57,247.50 148.39,246.18 C148.67,245.73 144.56,232.46 139.26,216.68 L 129.62 188.00 L 115.50 188.00 L 106.25 216.33 C101.16,231.90 97.00,245.18 97.00,245.83 ZM 207.48 125.75 C207.82,124.51 208.93,120.57 209.93,117.00 C213.72,103.56 214.99,97.60 218.23,77.98 C219.33,71.33 218.62,63.50 217.01,64.49 C216.52,64.80 215.75,64.38 215.30,63.58 C214.55,62.23 205.64,60.97 204.64,62.06 C203.15,63.69 199.17,73.20 198.59,76.50 C197.04,85.43 196.75,86.66 195.30,90.50 C194.47,92.70 193.34,96.75 192.77,99.50 C192.21,102.25 190.91,107.17 189.88,110.43 C188.21,115.72 188.17,116.61 189.48,118.61 C190.60,120.32 190.66,120.98 189.72,121.39 C189.05,121.68 189.64,121.69 191.04,121.40 C194.20,120.76 198.39,122.31 202.22,125.53 C205.84,128.58 206.70,128.61 207.48,125.75 ZM 228.28 145.19 C227.57,144.81 226.69,144.25 225.61,143.51 C223.60,142.14 220.49,140.29 218.72,139.38 C216.95,138.48 215.39,137.65 215.25,137.53 C214.78,137.15 223.78,100.29 224.80,98.37 C227.78,92.81 234.48,90.64 239.94,93.47 C242.82,94.96 243.13,95.52 242.65,98.33 C242.35,100.07 241.10,107.46 239.88,114.75 C239.15,119.09 238.40,122.95 237.86,125.37 C237.56,124.60 236.84,123.93 236.00,123.71 C233.81,123.14 233.60,123.32 234.94,125.53 C234.71,125.20 234.48,124.85 234.24,124.49 C233.00,122.57 231.27,121.00 230.40,121.00 C229.03,121.00 228.91,122.17 229.46,129.75 C229.80,134.44 230.31,139.90 230.61,142.08 C230.16,141.35 229.34,141.52 228.22,142.64 C226.90,143.95 226.88,144.31 228.09,145.08 C228.15,145.12 228.22,145.16 228.28,145.19 ZM 154.71 246.38 C155.10,246.77 157.91,246.96 160.96,246.79 L 166.50 246.50 L 166.50 188.50 L 154.00 187.90 L 154.00 216.79 C154.00,232.67 154.32,245.99 154.71,246.38 ZM 225.73 137.75 C226.36,136.94 226.36,133.20 225.74,127.14 C224.84,118.46 224.92,117.64 226.73,115.82 C228.67,113.88 228.71,113.89 231.71,116.41 C233.36,117.80 235.01,118.66 235.36,118.31 C235.71,117.95 236.00,115.70 236.00,113.30 C236.00,110.90 236.68,107.32 237.50,105.35 C240.48,98.20 238.66,95.16 231.99,96.17 C228.32,96.72 223.73,106.11 222.87,114.81 C222.47,118.83 221.44,123.20 220.58,124.53 C218.72,127.36 218.47,136.07 220.20,137.80 C221.76,139.36 224.49,139.33 225.73,137.75 ZM 201.99 216.21 C200.48,217.44 198.08,218.00 194.39,218.00 L 189.00 218.00 L 189.00 198.72 L 194.75 199.31 C202.50,200.10 205.46,203.25 204.71,209.89 C204.37,212.93 203.47,215.01 201.99,216.21 ZM 123.50 207.01 C123.70,206.67 123.71,206.07 123.56,205.43 C124.07,206.77 124.79,209.07 125.89,212.66 C127.60,218.19 129.00,223.01 129.00,223.36 C129.00,223.71 126.04,224.00 122.43,224.00 C116.65,224.00 115.93,223.79 116.38,222.25 C116.66,221.29 117.64,217.83 118.57,214.58 C119.49,211.32 120.82,207.29 121.52,205.62 C121.64,205.33 121.75,205.06 121.86,204.83 C121.74,205.36 121.57,205.94 121.39,206.42 C120.73,208.13 122.49,208.63 123.50,207.01 ZM 199.00 213.00 C200.10,211.90 201.00,209.88 201.00,208.50 C201.00,205.85 197.87,202.00 195.72,202.00 C195.02,202.00 193.44,202.70 192.22,203.56 C188.44,206.21 189.49,212.48 194.02,214.26 C196.44,215.21 196.91,215.09 199.00,213.00 ZM 123.00 218.88 C123.00,216.32 122.75,215.96 121.60,216.91 C120.84,217.55 120.44,218.96 120.72,220.04 C121.52,223.10 123.00,222.34 123.00,218.88 ZM 213.20 153.69 C213.14,153.62 213.07,153.56 213.00,153.50 C212.20,152.78 211.73,152.36 211.44,152.25 L 211.62 151.51 ZM 217.29 165.12 C219.65,164.73 220.52,164.55 220.43,163.94 C220.66,164.32 220.77,164.55 220.74,164.58 C220.62,164.70 218.81,164.97 216.11,165.31 C216.50,165.25 216.90,165.18 217.29,165.12 ZM 231.78 204.82 C231.82,202.43 231.60,200.11 231.17,197.99 C231.65,200.08 231.85,202.36 231.78,204.82 ZM 226.95 228.27 C225.00,235.23 222.72,242.40 220.67,247.71 C222.69,242.48 224.98,235.27 226.95,228.27 ZM 237.15 127.92 C237.12,127.96 237.09,127.99 237.07,127.99 C237.00,127.99 236.86,127.89 236.68,127.72 C236.85,127.83 237.00,127.90 237.15,127.92 Z" fill="rgb(52,97,151)"/>
<path d="M 201.18 128.86 C198.54,127.66 196.44,127.16 195.87,127.73 C195.34,128.26 196.11,130.09 198.40,133.61 C196.79,131.39 195.04,129.04 193.30,126.76 C191.54,124.45 190.29,122.37 190.52,122.14 C190.76,121.91 192.63,123.01 194.70,124.58 C196.64,126.07 199.47,127.93 201.18,128.86 ZM 202.91 166.79 C189.87,168.24 187.47,168.77 187.19,170.25 C187.09,170.76 187.16,171.21 187.34,171.53 C186.73,171.33 186.16,171.15 185.63,170.98 C180.93,169.51 182.41,168.04 188.61,168.02 C190.32,168.01 196.45,167.45 202.91,166.79 ZM 191.68 173.01 C199.00,175.43 214.89,181.47 219.00,183.55 C215.59,181.83 201.52,176.45 191.68,173.01 ZM 205.03 150.68 C204.27,155.09 204.00,157.54 204.23,158.94 C203.85,157.37 204.12,154.73 205.03,150.68 ZM 203.53 140.92 L 203.59 141.00 C204.35,142.03 204.88,142.87 205.23,143.66 C205.01,143.23 204.74,142.77 204.40,142.24 C204.14,141.83 203.85,141.39 203.53,140.92 ZM 205.52 160.64 C206.66,161.05 207.73,160.68 208.65,159.61 C207.73,160.69 206.67,161.09 205.58,160.67 C205.56,160.66 205.54,160.65 205.52,160.64 ZM 216.30 157.94 L 214.76 155.82 L 214.76 155.82 L 216.36 158.01 C216.65,158.42 216.94,158.81 217.20,159.19 C216.91,158.78 216.61,158.36 216.30,157.94 ZM 209.28 132.96 C209.48,132.71 210.59,128.11 212.68,118.88 C210.60,128.09 209.48,132.70 209.28,132.96 C209.28,132.96 209.28,132.96 209.27,132.97 C209.27,132.97 209.28,132.96 209.28,132.96 ZM 213.20 153.69 L 211.62 151.51 L 213.21 153.69 Z" fill="rgb(169,195,220)"/>
<path d="M 358.50 333.25 C359.14,334.83 358.44,335.00 351.17,335.00 C346.74,335.00 342.92,334.66 342.68,334.25 C342.44,333.84 340.38,328.85 338.10,323.17 C330.03,303.06 326.10,297.28 315.04,289.26 C306.45,283.03 297.64,274.72 292.97,268.43 C285.55,258.44 278.93,243.03 273.89,224.00 C270.81,212.35 270.59,195.80 273.46,191.46 L 275.43 188.50 L 276.10 192.00 C278.50,204.52 281.16,215.41 282.39,217.79 C283.18,219.32 284.15,222.35 284.55,224.53 C285.40,229.23 288.63,236.00 290.02,236.00 C290.56,236.00 291.00,238.48 291.00,241.50 C291.00,246.33 291.24,247.00 293.00,247.00 C294.10,247.00 295.00,247.63 295.00,248.41 C295.00,250.84 309.81,267.68 316.12,272.43 C329.36,282.39 346.26,287.86 360.17,286.69 C363.90,286.38 367.18,286.49 367.46,286.94 C368.70,288.94 356.29,295.00 350.93,295.00 C347.46,295.00 345.00,295.91 345.00,297.21 C345.00,297.75 345.65,299.62 346.45,301.35 C348.84,306.55 355.70,324.25 356.78,328.00 C357.33,329.92 358.11,332.29 358.50,333.25 ZM 266.57 125.30 C266.84,127.13 265.67,128.34 264.64,127.31 C264.29,126.95 264.00,125.80 264.00,124.75 C264.00,122.43 266.22,122.91 266.57,125.30 Z" fill="rgb(163,25,91)"/>
<path d="M 372.52 246.75 C368.96,250.83 358.22,249.30 357.92,244.68 C357.88,244.03 357.84,231.43 357.84,216.67 C357.83,193.11 358.03,189.62 359.49,188.01 C360.99,186.35 362.49,186.23 376.32,186.71 C390.01,187.19 391.91,187.48 395.64,189.65 C400.71,192.60 404.00,199.39 404.00,206.90 C404.00,212.65 400.50,223.00 398.55,223.00 C397.83,223.00 396.69,223.67 396.02,224.48 C395.02,225.69 395.39,227.04 398.01,231.73 C399.78,234.90 401.82,238.18 402.54,239.00 C404.85,241.65 405.30,245.56 403.50,247.36 C399.85,251.01 386.26,248.17 385.03,243.49 C383.87,239.10 377.82,230.00 376.06,230.00 C374.48,230.00 374.27,230.90 374.37,237.25 C374.46,243.13 374.11,244.93 372.52,246.75 ZM 319.30 166.90 C321.08,168.68 313.72,168.25 284.25,164.83 C283.01,164.68 282.00,164.29 282.00,163.94 C282.00,162.64 290.16,152.00 291.16,152.00 C291.74,152.00 291.99,152.59 291.71,153.30 C290.97,155.23 293.68,161.00 295.33,161.00 C299.08,161.00 299.57,156.20 296.46,150.00 C294.93,146.94 296.05,144.39 303.73,133.50 C306.65,129.35 308.52,125.82 307.96,125.48 C307.42,125.14 304.18,126.69 300.77,128.92 C297.03,131.36 294.20,132.60 293.65,132.05 C291.88,130.28 280.00,77.39 280.00,71.25 C280.00,64.86 285.71,59.00 291.93,59.00 C295.85,59.00 300.84,61.80 302.44,64.89 C303.31,66.57 306.29,77.29 309.06,88.72 C311.84,100.15 316.12,117.82 318.58,128.00 C321.04,138.18 323.48,147.51 324.01,148.75 C325.10,151.33 327.20,151.66 328.97,149.53 C329.95,148.35 329.49,145.22 326.63,133.78 C314.33,84.41 307.00,52.89 307.00,49.37 C307.01,45.64 310.32,40.27 313.50,38.82 C317.52,36.98 317.35,38.42 313.02,42.74 C310.81,44.95 309.00,47.61 309.00,48.63 C309.00,51.60 311.88,66.06 313.46,71.00 C314.25,73.47 315.86,80.00 317.05,85.50 C318.23,91.00 320.01,98.65 321.00,102.50 C324.10,114.59 325.24,119.38 325.99,123.50 C326.40,125.70 327.27,128.85 327.93,130.50 C329.73,134.95 331.30,143.03 331.13,146.91 C330.94,151.12 329.48,153.00 326.40,153.00 C323.03,153.00 319.99,146.71 317.43,134.50 C315.87,127.04 314.91,124.42 313.67,124.18 C312.75,124.00 312.00,124.38 312.00,125.03 C312.00,125.68 310.99,127.48 309.75,129.02 C300.82,140.18 297.81,145.21 298.49,147.83 C299.89,153.17 300.19,160.07 299.09,161.40 C297.19,163.68 299.91,164.71 309.35,165.27 C314.21,165.55 318.69,166.29 319.30,166.90 ZM 361.00 189.00 L 361.00 247.00 L 365.88 247.00 C368.66,247.00 371.22,246.44 371.83,245.70 C372.43,244.99 373.04,240.60 373.21,235.95 L 373.50 227.50 L 377.00 227.21 C380.49,226.93 380.52,226.96 385.50,236.71 L 390.50 246.50 L 395.89 246.81 C398.86,246.98 401.71,246.69 402.23,246.17 C402.82,245.58 401.13,241.41 397.70,235.01 L 392.22 224.79 L 396.09 221.30 C405.26,213.02 403.55,196.47 393.00,191.29 C389.04,189.35 386.86,189.08 374.75,189.04 ZM 358.50 333.25 C358.11,332.29 357.33,329.92 356.78,328.00 C356.48,326.94 355.71,324.76 354.71,322.07 C356.26,325.96 357.60,328.99 358.20,329.73 C360.38,332.39 384.23,329.05 394.00,324.72 C395.92,323.86 399.05,322.59 400.95,321.88 C402.84,321.17 405.77,319.40 407.45,317.94 C409.13,316.49 411.73,314.89 413.24,314.40 C417.29,313.07 427.00,304.98 427.00,302.93 C427.00,301.96 426.36,299.89 425.58,298.33 C424.80,296.77 423.48,293.70 422.65,291.50 C421.81,289.30 419.97,284.48 418.55,280.78 C412.77,265.76 413.02,257.46 419.67,243.41 C422.06,238.36 424.66,233.70 425.44,233.05 C426.23,232.39 427.18,230.43 427.55,228.68 C427.93,226.93 428.59,225.05 429.03,224.50 C431.75,221.09 434.83,207.24 439.04,179.50 C440.46,170.07 441.60,164.82 444.02,156.50 C445.13,152.65 446.33,147.98 446.68,146.11 C447.02,144.25 448.09,141.12 449.04,139.16 C451.17,134.78 450.83,133.77 446.56,131.73 C443.60,130.32 442.58,130.29 437.96,131.51 C430.31,133.53 424.55,139.50 420.80,149.30 C419.71,152.16 417.43,158.32 415.75,163.00 C412.94,170.79 408.80,178.57 406.65,180.13 C406.17,180.47 404.97,180.54 403.98,180.28 C398.33,178.81 393.25,167.32 390.15,149.00 C389.73,146.52 388.89,143.60 388.30,142.50 C387.70,141.40 386.47,137.35 385.56,133.50 C384.66,129.65 383.50,125.15 382.99,123.50 C382.49,121.85 381.37,117.80 380.52,114.50 C375.11,93.63 372.81,85.14 371.86,82.50 C371.27,80.85 369.92,75.53 368.87,70.69 C366.30,58.90 363.59,54.70 357.44,52.98 L 352.70 51.66 L 349.35 55.31 C346.62,58.30 346.01,59.76 346.04,63.24 C346.07,65.58 346.73,69.30 347.52,71.50 C348.30,73.70 349.23,77.53 349.59,80.00 C349.94,82.47 350.90,86.97 351.71,90.00 C352.52,93.03 353.84,98.20 354.65,101.50 C358.17,115.99 359.20,119.85 361.05,125.52 C362.97,131.41 363.88,143.77 362.55,145.92 C361.51,147.60 357.47,147.19 355.82,145.25 C353.82,142.89 351.00,135.04 351.00,131.84 C351.00,130.41 350.29,127.53 349.41,125.44 C348.54,123.35 347.39,119.36 346.87,116.57 C344.31,103.00 342.29,94.75 340.45,90.35 C339.72,88.62 338.83,85.47 338.47,83.35 C337.75,79.14 335.93,72.17 330.45,52.68 C328.53,45.85 323.90,40.00 320.40,40.00 C318.86,40.00 318.00,39.42 318.00,38.39 C318.00,37.07 318.68,36.90 321.75,37.47 C325.51,38.16 329.35,40.95 331.14,44.28 C332.16,46.16 344.23,92.97 351.06,121.50 C355.78,141.23 357.29,145.28 359.77,144.81 C360.75,144.62 361.62,143.41 361.79,141.99 C361.95,140.62 358.22,123.97 353.51,105.00 C348.80,86.03 344.67,67.75 344.34,64.38 C343.75,58.46 343.84,58.14 347.12,54.60 C352.75,48.50 362.31,48.96 366.62,55.54 C367.59,57.03 370.34,65.50 372.72,74.37 C375.10,83.24 380.84,104.68 385.47,122.00 C398.92,172.26 400.87,178.00 404.54,178.00 C406.77,178.00 409.45,172.92 414.53,159.03 C419.90,144.35 422.57,139.47 427.64,135.01 C432.72,130.55 436.89,129.00 443.81,129.00 C454.06,129.00 455.07,132.41 449.55,148.47 C444.51,163.15 442.29,172.68 439.97,189.50 C436.96,211.42 434.72,219.80 428.80,231.37 C417.34,253.79 417.59,253.15 417.19,260.50 C416.75,268.60 418.32,274.08 426.09,291.50 C428.79,297.55 431.00,303.06 431.00,303.75 C431.00,305.40 416.56,316.73 409.82,320.37 C400.81,325.24 390.94,329.01 380.50,331.59 C375.23,332.90 366.08,334.03 358.11,334.63 C358.81,334.37 358.78,333.95 358.50,333.25 ZM 302.20 258.41 C298.17,253.74 295.00,249.53 295.00,248.41 C295.00,247.63 294.10,247.00 293.00,247.00 C292.97,247.00 292.95,247.00 292.92,247.00 L 296.75 246.80 L 302.50 246.50 L 302.79 237.90 L 303.07 229.29 L 311.02 228.68 C319.45,228.03 323.13,226.66 326.70,222.83 C333.70,215.33 333.73,199.92 326.74,193.73 C322.28,189.78 318.62,189.00 304.53,189.00 L 291.00 189.00 L 291.00 241.50 C291.00,238.48 290.56,236.00 290.02,236.00 C288.63,236.00 285.40,229.23 284.55,224.53 C284.49,224.19 284.41,223.83 284.32,223.46 C284.51,224.10 284.75,224.84 285.02,225.54 C285.81,227.64 286.32,227.98 287.39,227.09 C288.46,226.20 288.69,222.07 288.47,207.46 L 288.20 188.95 L 291.05 187.47 C294.63,185.62 316.51,185.41 320.70,187.18 C324.96,188.98 333.00,197.10 333.00,199.59 C333.00,200.78 333.67,202.32 334.50,203.00 C335.80,204.08 336.02,203.53 336.12,198.87 C336.18,195.92 336.16,192.90 336.06,192.17 C335.96,191.44 336.55,189.81 337.37,188.55 C338.63,186.63 339.77,186.26 344.52,186.21 C350.03,186.16 350.20,186.25 351.61,189.61 C353.52,194.17 353.56,242.24 351.66,246.06 C350.65,248.09 349.61,248.55 345.39,248.80 C341.68,249.01 339.75,248.62 338.14,247.30 C336.09,245.62 335.94,244.64 335.89,232.26 C335.85,223.96 335.43,218.77 334.76,218.35 C333.71,217.70 326.70,224.40 325.89,226.83 C325.42,228.25 315.94,230.97 311.40,230.99 C306.80,231.01 305.00,233.64 305.00,240.36 C305.00,245.82 304.85,246.16 301.50,248.13 C299.58,249.27 298.00,250.88 298.00,251.72 C298.00,252.72 299.72,255.32 302.20,258.41 ZM 294.32 126.75 C295.76,128.69 298.14,128.24 301.02,125.48 C304.22,122.42 309.34,120.74 310.87,122.27 C314.06,125.46 313.25,115.30 309.13,100.50 C308.05,96.65 306.42,89.45 305.50,84.50 C304.57,79.55 303.19,74.38 302.43,73.00 C301.66,71.62 300.30,68.93 299.41,67.00 C297.36,62.62 296.45,62.03 291.59,62.02 C288.43,62.00 287.11,62.63 284.75,65.25 C281.93,68.38 281.85,68.76 282.48,75.36 C282.85,79.13 283.51,83.18 283.96,84.36 C284.41,85.54 285.25,88.75 285.84,91.50 C290.00,110.99 293.53,125.69 294.32,126.75 ZM 266.57 125.30 C266.26,123.16 264.44,122.55 264.07,124.12 C262.82,118.80 260.78,107.93 259.47,99.24 C258.84,95.08 258.91,94.94 262.38,93.49 C266.37,91.82 271.00,91.52 271.00,92.93 C271.00,93.44 271.99,94.00 273.20,94.18 C276.66,94.68 278.61,99.29 282.82,117.00 C284.98,126.08 287.06,134.25 287.45,135.16 C287.99,136.45 286.61,137.74 281.27,140.91 C277.48,143.16 273.78,145.00 273.04,145.00 C271.95,145.00 271.82,142.63 272.36,132.50 C273.11,118.48 272.21,116.71 268.07,124.09 C267.57,124.98 267.04,125.76 266.57,126.33 C266.62,126.02 266.63,125.67 266.57,125.30 ZM 339.00 189.00 L 339.00 247.10 L 344.75 246.80 L 350.50 246.50 L 350.77 217.75 L 351.03 189.00 ZM 274.89 139.25 C275.06,140.42 276.83,140.14 280.19,138.40 C283.25,136.82 283.27,136.76 282.65,130.65 C282.32,127.27 281.13,121.65 280.02,118.16 C278.91,114.67 278.00,110.12 278.00,108.03 C278.00,105.89 277.35,103.71 276.50,103.00 C275.67,102.32 275.00,101.11 275.00,100.33 C275.00,98.09 270.32,94.00 267.80,94.03 C266.53,94.05 264.62,94.73 263.56,95.53 C261.70,96.93 261.68,97.38 262.99,104.75 C263.75,109.01 264.44,113.85 264.53,115.50 C264.81,120.56 264.96,121.00 266.34,121.00 C267.08,121.00 268.19,119.88 268.82,118.50 C270.06,115.78 272.15,115.27 273.81,117.28 C274.41,118.00 274.86,122.91 274.83,128.53 C274.81,134.01 274.84,138.84 274.89,139.25 ZM 316.97 216.03 C314.57,218.43 304.29,218.91 303.42,216.66 C303.14,215.93 303.04,211.76 303.21,207.41 L 303.50 199.50 L 307.66 199.20 C309.94,199.03 313.40,199.56 315.35,200.37 C318.18,201.56 319.01,202.55 319.55,205.42 C320.39,209.89 319.52,213.48 316.97,216.03 ZM 387.09 214.35 C385.04,216.40 375.22,217.93 373.75,216.43 C373.34,216.01 373.00,211.86 373.00,207.21 L 373.00 198.76 L 379.15 199.20 C384.38,199.58 385.67,200.07 387.75,202.50 C389.71,204.77 390.09,206.06 389.63,208.87 C389.32,210.80 388.18,213.27 387.09,214.35 ZM 306.66 215.25 C307.32,216.33 309.78,216.17 310.50,215.00 C310.84,214.45 311.94,214.00 312.94,214.00 C317.32,214.00 317.99,208.68 314.19,203.98 C312.63,202.05 311.78,201.82 308.57,202.42 L 304.79 203.13 L 305.49 208.82 C305.88,211.94 306.41,214.84 306.66,215.25 ZM 284.09 222.52 C283.61,220.75 282.96,218.89 282.39,217.79 C281.16,215.41 278.50,204.52 276.10,192.00 L 275.49 188.83 C278.83,185.23 284.60,182.54 300.50,176.69 C319.43,169.72 320.35,169.45 319.82,171.04 C319.59,171.73 315.35,173.72 310.39,175.47 C305.44,177.21 299.38,179.57 296.94,180.71 C294.50,181.85 291.25,183.07 289.72,183.42 C288.20,183.77 284.71,185.43 281.97,187.11 C277.92,189.61 277.00,190.69 277.00,192.98 C277.00,197.39 280.80,214.71 282.48,217.96 C283.32,219.58 284.00,221.34 284.00,221.89 C284.00,222.03 284.03,222.25 284.09,222.52 ZM 376.00 212.00 C381.00,217.00 388.82,211.59 385.79,205.23 C384.33,202.16 379.61,201.07 376.05,202.98 C373.36,204.41 373.34,209.34 376.00,212.00 ZM 351.79 314.39 C349.73,309.11 347.59,303.82 346.45,301.35 C345.65,299.62 345.00,297.75 345.00,297.21 C345.00,295.91 347.46,295.00 350.93,295.00 C351.70,295.00 352.60,294.88 353.59,294.66 C353.54,294.67 353.49,294.69 353.44,294.70 C347.37,296.20 347.00,296.45 347.00,299.18 C347.00,300.60 349.26,307.49 351.79,314.39 ZM 287.67 163.33 C289.60,165.27 291.74,162.60 289.96,160.46 C289.30,159.66 288.36,159.00 287.88,159.00 C286.85,159.00 286.69,162.36 287.67,163.33 ZM 274.30 225.51 C277.18,236.09 280.54,245.51 284.27,253.46 C279.89,244.36 276.48,234.71 274.30,225.51 ZM 351.52 335.00 C346.66,335.17 343.14,335.02 342.77,334.40 C342.76,334.37 342.74,334.34 342.71,334.29 C343.16,334.68 346.88,335.00 351.17,335.00 C351.29,335.00 351.41,335.00 351.52,335.00 ZM 298.04 274.39 C302.79,279.42 308.97,284.86 315.04,289.26 C308.20,284.30 302.69,279.51 298.04,274.39 ZM 273.09 192.13 C272.32,193.74 271.82,196.36 271.59,199.55 C271.68,195.57 272.04,193.96 273.09,192.13 ZM 324.81 278.05 C336.15,284.29 349.23,287.61 360.17,286.69 C349.15,287.61 336.27,284.38 324.81,278.05 ZM 318.57 274.19 C317.74,273.62 316.92,273.03 316.12,272.43 C315.82,272.21 315.51,271.96 315.18,271.69 C316.28,272.56 317.41,273.39 318.57,274.19 Z" fill="rgb(197,50,108)"/>
<path d="M 319.30 166.90 C318.69,166.29 314.21,165.55 309.35,165.27 C299.91,164.71 297.19,163.68 299.09,161.40 C300.19,160.07 299.89,153.17 298.49,147.83 C297.81,145.21 300.82,140.18 309.75,129.02 C310.99,127.48 312.00,125.68 312.00,125.03 C312.00,124.38 312.75,124.00 313.67,124.18 C314.91,124.42 315.87,127.04 317.43,134.50 C319.99,146.71 323.03,153.00 326.40,153.00 C329.48,153.00 330.94,151.12 331.13,146.91 C331.30,143.03 329.73,134.95 327.93,130.50 C327.27,128.85 326.40,125.70 325.99,123.50 C325.24,119.38 324.10,114.59 321.00,102.50 C320.01,98.65 318.23,91.00 317.05,85.50 C315.86,80.00 314.25,73.47 313.46,71.00 C311.88,66.06 309.00,51.60 309.00,48.63 C309.00,47.61 310.81,44.95 313.02,42.74 C316.15,39.61 317.11,38.00 315.88,38.04 C316.63,37.81 317.40,37.66 318.18,37.57 C318.05,37.77 318.00,38.04 318.00,38.39 C318.00,39.42 318.86,40.00 320.40,40.00 C323.90,40.00 328.53,45.85 330.45,52.68 C335.93,72.17 337.75,79.14 338.47,83.35 C338.83,85.47 339.72,88.62 340.45,90.35 C342.29,94.75 344.31,103.00 346.87,116.57 C347.39,119.36 348.54,123.35 349.41,125.44 C350.29,127.53 351.00,130.41 351.00,131.84 C351.00,135.04 353.82,142.89 355.82,145.25 C357.47,147.19 361.51,147.60 362.55,145.92 C363.88,143.77 362.97,131.41 361.05,125.52 C359.20,119.85 358.17,115.99 354.65,101.50 C353.84,98.20 352.52,93.03 351.71,90.00 C350.90,86.97 349.94,82.47 349.59,80.00 C349.23,77.53 348.30,73.70 347.52,71.50 C346.73,69.30 346.07,65.58 346.04,63.24 C346.01,59.76 346.62,58.30 349.35,55.31 L 352.70 51.66 L 357.44 52.98 C363.59,54.70 366.30,58.90 368.87,70.69 C369.92,75.53 371.27,80.85 371.86,82.50 C372.81,85.14 375.11,93.63 380.52,114.50 C381.37,117.80 382.49,121.85 382.99,123.50 C383.50,125.15 384.66,129.65 385.56,133.50 C386.47,137.35 387.70,141.40 388.30,142.50 C388.89,143.60 389.73,146.52 390.15,149.00 C393.25,167.32 398.33,178.81 403.98,180.28 C404.97,180.54 406.17,180.47 406.65,180.13 C408.80,178.57 412.94,170.79 415.75,163.00 C417.43,158.32 419.71,152.16 420.80,149.30 C424.55,139.50 430.31,133.53 437.96,131.51 C442.58,130.29 443.60,130.32 446.56,131.73 C450.83,133.77 451.17,134.78 449.04,139.16 C448.09,141.12 447.02,144.25 446.68,146.11 C446.33,147.98 445.13,152.65 444.02,156.50 C441.60,164.82 440.46,170.07 439.04,179.50 C434.83,207.24 431.75,221.09 429.03,224.50 C428.59,225.05 427.93,226.93 427.55,228.68 C427.18,230.43 426.23,232.39 425.44,233.05 C424.66,233.70 422.06,238.36 419.67,243.41 C413.02,257.46 412.77,265.76 418.55,280.78 C419.97,284.48 421.81,289.30 422.65,291.50 C423.48,293.70 424.80,296.77 425.58,298.33 C426.36,299.89 427.00,301.96 427.00,302.93 C427.00,304.98 417.29,313.07 413.24,314.40 C411.73,314.89 409.13,316.49 407.45,317.94 C405.77,319.40 402.84,321.17 400.95,321.88 C399.05,322.59 395.92,323.86 394.00,324.72 C384.23,329.05 360.38,332.39 358.20,329.73 C357.60,328.99 356.26,325.96 354.71,322.07 C353.86,319.76 352.83,317.08 351.79,314.39 C349.26,307.49 347.00,300.60 347.00,299.18 C347.00,296.45 347.37,296.20 353.44,294.70 C353.49,294.69 353.54,294.67 353.59,294.66 C359.55,293.36 368.52,288.66 367.46,286.94 C367.18,286.49 363.90,286.38 360.17,286.69 C349.23,287.61 336.16,284.29 324.81,278.05 L 324.81 278.05 C322.67,276.87 320.59,275.58 318.57,274.19 C317.41,273.39 316.28,272.56 315.18,271.69 C311.72,268.84 306.47,263.36 302.20,258.41 C299.72,255.32 298.00,252.72 298.00,251.72 C298.00,250.88 299.58,249.27 301.50,248.13 C304.85,246.16 305.00,245.82 305.00,240.36 C305.00,233.64 306.80,231.01 311.40,230.99 C315.94,230.97 325.42,228.25 325.89,226.83 C326.70,224.40 333.71,217.70 334.76,218.35 C335.43,218.77 335.85,223.96 335.89,232.26 C335.94,244.64 336.09,245.62 338.14,247.30 C339.75,248.62 341.68,249.01 345.39,248.80 C349.61,248.55 350.65,248.09 351.66,246.06 C353.56,242.24 353.52,194.17 351.61,189.61 C350.20,186.25 350.03,186.16 344.52,186.21 C339.77,186.26 338.63,186.63 337.37,188.55 C336.55,189.81 335.96,191.44 336.06,192.17 C336.16,192.90 336.18,195.92 336.12,198.87 C336.02,203.53 335.80,204.08 334.50,203.00 C333.67,202.32 333.00,200.78 333.00,199.59 C333.00,197.10 324.96,188.98 320.70,187.18 C316.51,185.41 294.63,185.62 291.05,187.47 L 288.20 188.95 L 288.47 207.46 C288.69,222.07 288.46,226.20 287.39,227.09 C286.32,227.98 285.81,227.64 285.02,225.54 C284.75,224.84 284.51,224.10 284.32,223.46 C284.25,223.15 284.17,222.83 284.09,222.52 C284.03,222.25 284.00,222.03 284.00,221.89 C284.00,221.34 283.32,219.58 282.48,217.96 C280.80,214.71 277.00,197.39 277.00,192.98 C277.00,190.69 277.92,189.61 281.97,187.11 C284.71,185.43 288.20,183.77 289.72,183.42 C291.25,183.07 294.50,181.85 296.94,180.71 C299.38,179.57 305.44,177.21 310.39,175.47 C315.35,173.72 319.59,171.73 319.82,171.04 C320.24,169.77 319.74,169.69 309.81,173.28 C314.52,171.52 318.12,170.12 319.00,169.72 C321.48,168.58 321.47,168.56 318.00,168.26 C317.26,168.20 315.56,168.03 313.27,167.80 C318.76,168.14 320.20,167.80 319.30,166.90 ZM 372.52 246.75 C374.11,244.93 374.46,243.13 374.37,237.25 C374.27,230.90 374.48,230.00 376.06,230.00 C377.82,230.00 383.87,239.10 385.03,243.49 C386.26,248.17 399.85,251.01 403.50,247.36 C405.30,245.56 404.85,241.65 402.54,239.00 C401.82,238.18 399.78,234.90 398.01,231.73 C395.39,227.04 395.02,225.69 396.02,224.48 C396.69,223.67 397.83,223.00 398.55,223.00 C400.50,223.00 404.00,212.65 404.00,206.90 C404.00,199.39 400.71,192.60 395.64,189.65 C391.91,187.48 390.01,187.19 376.32,186.71 C362.49,186.23 360.99,186.35 359.49,188.01 C358.03,189.62 357.83,193.11 357.84,216.67 C357.84,231.43 357.88,244.03 357.92,244.68 C358.22,249.30 368.96,250.83 372.52,246.75 ZM 294.32 126.75 C293.53,125.69 290.00,110.99 285.84,91.50 C285.25,88.75 284.41,85.54 283.96,84.36 C283.51,83.18 282.85,79.13 282.48,75.36 C281.85,68.76 281.93,68.38 284.75,65.25 C287.11,62.63 288.43,62.00 291.59,62.02 C296.45,62.03 297.36,62.62 299.41,67.00 C300.30,68.93 301.66,71.62 302.43,73.00 C303.19,74.38 304.57,79.55 305.50,84.50 C306.42,89.45 308.05,96.65 309.13,100.50 C313.25,115.30 314.06,125.46 310.87,122.27 C309.34,120.74 304.22,122.42 301.02,125.48 C298.14,128.24 295.76,128.69 294.32,126.75 ZM 274.89 139.25 C274.84,138.84 274.81,134.01 274.83,128.53 C274.86,122.91 274.41,118.00 273.81,117.28 C272.15,115.27 270.06,115.78 268.82,118.50 C268.19,119.88 267.08,121.00 266.34,121.00 C264.96,121.00 264.81,120.56 264.53,115.50 C264.44,113.85 263.75,109.01 262.99,104.75 C261.68,97.38 261.70,96.93 263.56,95.53 C264.62,94.73 266.53,94.05 267.80,94.03 C270.32,94.00 275.00,98.09 275.00,100.33 C275.00,101.11 275.67,102.32 276.50,103.00 C277.35,103.71 278.00,105.89 278.00,108.03 C278.00,110.12 278.91,114.67 280.02,118.16 C281.13,121.65 282.32,127.27 282.65,130.65 C283.27,136.76 283.25,136.82 280.19,138.40 C276.83,140.14 275.06,140.42 274.89,139.25 ZM 306.66 215.25 C306.41,214.84 305.88,211.94 305.49,208.82 L 304.79 203.13 L 308.57 202.42 C311.78,201.82 312.63,202.05 314.19,203.98 C317.99,208.68 317.32,214.00 312.94,214.00 C311.94,214.00 310.84,214.45 310.50,215.00 C309.78,216.17 307.32,216.33 306.66,215.25 ZM 376.00 212.00 C373.34,209.34 373.36,204.41 376.05,202.98 C379.61,201.07 384.33,202.16 385.79,205.23 C388.82,211.59 381.00,217.00 376.00,212.00 ZM 287.67 163.33 C286.69,162.36 286.85,159.00 287.88,159.00 C288.36,159.00 289.30,159.66 289.96,160.46 C291.74,162.60 289.60,165.27 287.67,163.33 ZM 291.22 152.00 C291.98,151.58 292.24,151.93 291.71,153.30 C291.98,152.61 291.76,152.04 291.22,152.00 ZM 325.84 39.02 C327.99,40.15 329.87,41.91 331.14,44.28 C330.01,42.18 328.07,40.29 325.84,39.02 ZM 285.83 157.97 C285.91,157.87 285.98,157.77 286.06,157.66 C287.37,155.83 288.62,154.33 289.64,153.32 C288.59,154.46 287.16,156.22 285.83,157.97 ZM 284.23 164.82 C283.71,164.77 283.37,164.74 283.25,164.74 C282.59,164.70 282.20,164.58 282.15,164.18 C282.47,164.45 283.28,164.71 284.23,164.82 ZM 307.06 48.53 C307.02,48.81 307.00,49.10 307.00,49.37 C307.00,49.39 307.00,49.42 307.00,49.45 C307.00,49.38 307.00,49.32 307.00,49.27 C307.00,49.04 307.02,48.79 307.06,48.53 ZM 275.49 188.83 L 275.49 188.83 C276.26,188.00 277.16,187.22 278.28,186.44 C277.16,187.22 276.26,188.00 275.49,188.83 Z" fill="rgb(221,37,113)"/>
<path d="M 304.59 167.06 C308.21,167.42 311.07,167.67 313.27,167.80 C315.56,168.03 317.26,168.20 318.00,168.26 C321.47,168.56 321.48,168.58 319.00,169.72 C318.12,170.12 314.52,171.52 309.81,173.28 C307.33,174.18 304.28,175.30 300.50,176.69 C294.90,178.75 290.56,180.42 287.14,181.87 C291.09,180.12 296.08,178.19 302.35,175.93 C312.68,172.20 316.35,170.02 314.83,168.50 C314.69,168.36 310.19,167.75 304.59,167.06 ZM 273.09 192.13 C272.55,193.07 272.19,193.96 271.96,195.15 C272.30,193.38 272.91,192.26 274.00,190.63 C274.08,190.51 274.17,190.38 274.26,190.26 L 273.46 191.46 C273.33,191.66 273.21,191.88 273.09,192.13 Z" fill="rgb(227,144,181)"/>
<path d="M 252.52 326.75 C251.79,328.74 250.27,328.20 249.67,325.75 C248.56,321.13 243.93,296.58 242.97,290.16 C242.42,286.50 241.33,279.97 240.55,275.66 C239.77,271.34 239.38,267.18 239.68,266.40 C239.98,265.62 240.51,262.62 240.86,259.74 C241.39,255.38 241.84,254.50 243.50,254.50 C245.07,254.50 245.97,255.90 247.70,261.00 C248.91,264.58 249.92,268.31 249.95,269.31 C250.02,271.80 252.00,270.38 252.00,267.84 C252.00,266.72 252.63,264.38 253.41,262.65 C254.18,260.92 255.09,258.26 255.43,256.75 C256.46,252.09 261.03,254.03 260.97,259.10 C260.83,272.41 259.85,286.09 258.51,293.50 C257.62,298.45 256.01,307.67 254.93,314.00 C253.86,320.33 252.77,326.06 252.52,326.75 ZM 254.39 26.25 C252.41,34.83 250.66,36.14 249.07,30.25 C246.69,21.46 244.00,9.94 244.00,8.53 C244.00,7.30 245.39,7.00 251.00,7.00 C256.67,7.00 258.00,7.30 258.00,8.56 C258.00,10.20 257.31,13.56 254.39,26.25 ZM 231.66 46.75 C231.87,48.54 231.65,50.00 231.16,50.00 C229.81,50.00 221.49,42.41 217.95,37.94 C215.30,34.59 215.00,33.71 216.08,32.40 C217.41,30.80 224.25,27.00 225.80,27.00 C226.75,27.00 231.02,41.39 231.66,46.75 ZM 290.35 297.72 C291.17,299.10 279.45,305.53 278.60,304.17 C278.07,303.31 276.24,293.39 275.30,286.23 C274.83,282.64 274.98,282.06 276.29,282.56 C277.73,283.11 288.71,294.94 290.35,297.72 ZM 226.36 294.69 C224.72,296.72 222.89,298.54 222.29,298.74 C221.09,299.14 214.00,292.29 214.00,290.73 C214.00,290.20 215.65,288.26 217.66,286.42 C221.23,283.15 221.38,283.11 224.08,284.71 C225.60,285.60 227.41,287.39 228.09,288.67 C229.20,290.74 229.00,291.43 226.36,294.69 ZM 222.76 264.97 C219.73,268.51 218.66,267.51 219.34,261.76 C219.68,258.87 220.42,256.36 220.98,256.17 C221.54,255.99 222.00,255.07 222.00,254.14 C222.00,253.21 222.69,251.46 223.53,250.26 C225.38,247.62 228.89,248.46 230.14,251.86 C230.78,253.59 230.24,254.83 227.59,257.77 C225.73,259.82 224.28,261.82 224.36,262.22 C224.44,262.61 223.72,263.85 222.76,264.97 ZM 275.74 49.45 C275.10,52.48 273.69,52.31 269.52,48.71 L 265.67 45.37 L 267.98 42.23 C271.09,38.03 272.54,37.65 274.43,40.54 C276.05,43.00 276.48,45.94 275.74,49.45 ZM 283.81 265.75 C283.98,266.99 283.91,268.00 283.66,268.00 C282.61,268.00 275.27,258.34 274.76,256.29 C274.46,255.07 274.77,253.61 275.45,253.04 C277.47,251.36 280.33,255.29 279.79,259.00 C279.54,260.70 279.78,262.36 280.32,262.70 C280.87,263.04 280.99,262.80 280.60,262.15 C280.20,261.52 280.17,261.00 280.51,261.00 C281.74,261.00 283.50,263.53 283.81,265.75 Z" fill="rgb(221,163,57)"/>
<path d="M 259.30 288.09 C260.22,280.39 260.86,269.63 260.97,259.10 C261.03,254.03 256.46,252.09 255.43,256.75 C255.09,258.26 254.18,260.92 253.41,262.65 C252.63,264.38 252.00,266.72 252.00,267.84 C252.00,270.38 250.02,271.80 249.95,269.31 C249.92,268.31 248.91,264.58 247.70,261.00 C245.97,255.90 245.07,254.50 243.50,254.50 C241.84,254.50 241.39,255.38 240.86,259.74 C240.51,262.62 239.98,265.62 239.68,266.40 C239.38,267.18 239.77,271.34 240.55,275.66 C241.18,279.15 242.02,284.10 242.60,287.80 C242.36,286.38 242.14,285.10 241.95,284.00 C241.36,280.42 240.24,274.12 239.47,270.00 C238.70,265.88 237.80,260.79 237.48,258.70 C236.53,252.57 234.52,252.90 227.25,260.34 C225.93,261.70 224.64,262.96 223.50,264.01 C224.06,263.22 224.41,262.50 224.36,262.22 C224.28,261.82 225.73,259.82 227.59,257.77 C230.24,254.83 230.78,253.59 230.14,251.86 C228.89,248.46 225.38,247.62 223.53,250.26 C222.69,251.46 222.00,253.21 222.00,254.14 C222.00,255.07 221.54,255.99 220.98,256.17 C220.42,256.36 219.68,258.87 219.34,261.76 C218.97,264.94 219.12,266.67 219.85,266.98 C219.81,266.99 219.78,267.00 219.75,267.00 C216.85,267.00 222.53,243.89 227.53,235.37 C228.89,233.04 230.00,230.27 230.00,229.19 C230.00,228.12 230.65,226.71 231.44,226.05 C232.64,225.06 233.00,225.46 233.55,228.43 C233.92,230.39 234.59,232.00 235.03,232.00 C235.47,232.00 236.81,230.43 238.00,228.50 C242.08,221.89 243.97,224.31 246.57,239.50 C247.51,245.00 248.78,253.77 249.40,259.00 C250.01,264.23 250.80,268.05 251.15,267.50 C251.49,266.95 252.83,257.61 254.11,246.75 C255.60,234.19 256.85,227.00 257.57,227.00 C259.30,227.00 264.64,229.86 266.03,231.53 C267.49,233.30 269.99,231.79 270.02,229.13 C270.06,226.06 273.61,231.97 274.97,237.36 C275.69,240.19 277.06,244.07 278.02,246.00 C280.70,251.37 282.94,258.58 283.55,263.79 L 283.73 265.28 C283.26,263.19 281.66,261.00 280.51,261.00 C280.17,261.00 280.20,261.52 280.60,262.15 C280.99,262.80 280.87,263.04 280.32,262.70 C279.78,262.36 279.54,260.70 279.79,259.00 C280.33,255.29 277.47,251.36 275.45,253.04 C274.77,253.61 274.46,255.07 274.76,256.29 C275.10,257.66 278.48,262.41 281.00,265.42 L 275.78 260.25 C271.20,255.71 266.94,252.00 266.30,252.00 C265.63,252.00 264.87,254.44 264.49,257.75 C264.13,260.91 262.99,268.00 261.94,273.50 C261.18,277.51 260.14,283.25 259.30,288.09 ZM 252.52 104.92 C250.99,111.88 246.15,110.27 245.81,102.68 C245.71,100.38 245.54,96.25 245.44,93.50 C245.23,87.84 248.72,62.31 250.03,60.00 C251.26,57.82 254.13,65.11 254.11,70.37 C254.10,72.64 254.56,79.80 255.15,86.28 C256.19,97.87 255.80,103.61 254.05,102.53 C253.56,102.23 252.87,103.31 252.52,104.92 ZM 218.59 151.62 C219.46,156.25 217.64,155.98 214.50,151.00 C213.11,148.80 211.31,147.00 210.49,147.00 C209.66,147.00 209.00,146.10 209.00,144.98 C209.00,143.87 207.18,140.98 204.96,138.57 C200.47,133.70 201.25,132.32 207.03,134.91 C210.97,136.68 211.60,137.15 218.00,142.92 C222.28,146.78 222.39,147.01 220.23,147.61 C218.26,148.16 218.04,148.69 218.59,151.62 ZM 214.00 174.62 C214.00,176.56 213.49,176.99 211.25,176.96 C209.74,176.95 207.38,176.28 206.00,175.49 C204.62,174.69 201.81,173.57 199.75,172.98 C192.34,170.89 195.69,169.43 209.75,168.65 C217.06,168.24 218.25,168.72 215.50,171.00 C214.68,171.68 214.00,173.31 214.00,174.62 ZM 275.74 49.45 C276.48,45.94 276.05,43.00 274.43,40.54 C273.21,38.68 272.18,38.18 270.76,39.18 C271.12,38.88 271.43,38.67 271.65,38.58 C273.19,37.99 280.00,43.57 280.00,45.42 C280.00,46.08 278.74,47.84 277.20,49.31 C275.65,50.79 274.15,52.00 273.86,52.00 C273.58,52.00 271.72,50.59 269.68,48.84 C273.73,52.31 275.10,52.44 275.74,49.45 ZM 226.33 167.50 C226.54,168.75 222.38,169.43 221.66,168.26 C221.37,167.79 221.54,166.75 222.04,165.95 C222.99,164.42 225.98,165.49 226.33,167.50 ZM 298.77 136.20 C298.55,136.86 296.89,138.23 295.09,139.23 L 291.82 141.06 L 293.98 138.03 C296.06,135.10 299.58,133.76 298.77,136.20 ZM 227.36 149.50 C227.68,150.32 227.56,151.00 227.09,151.00 C226.63,151.00 225.68,150.32 225.00,149.50 C223.99,148.28 224.04,148.00 225.27,148.00 C226.10,148.00 227.05,148.68 227.36,149.50 ZM 222.60 159.27 C222.94,159.60 223.02,160.44 222.79,161.14 C222.45,162.15 222.21,162.15 221.58,161.13 C220.75,159.78 221.59,158.25 222.60,159.27 ZM 283.59 267.99 C283.61,268.00 283.64,268.00 283.66,268.00 C283.84,268.00 283.93,267.51 283.90,266.79 L 284.10 268.50 ZM 252.52 326.75 C252.14,327.79 251.68,328.17 251.20,327.95 C251.70,328.03 252.19,327.65 252.52,326.75 C252.65,326.39 253.00,324.69 253.46,322.24 C252.98,324.85 252.66,326.36 252.52,326.75 ZM 255.07 313.18 C255.25,312.11 255.45,310.97 255.65,309.80 C255.45,310.99 255.25,312.12 255.07,313.18 Z" fill="rgb(236,186,79)"/>
<path d="M 257.53 227.01 C256.81,227.27 255.57,234.42 254.11,246.75 C253.32,253.46 252.50,259.58 251.92,263.42 C251.77,262.62 251.42,262.24 251.00,262.50 C250.64,262.72 250.32,263.40 250.15,264.23 C249.89,262.80 249.63,261.01 249.40,259.00 C248.93,255.04 248.08,249.03 247.29,243.96 C247.57,244.88 247.82,245.29 247.99,245.01 C248.47,244.24 248.92,244.58 249.30,246.02 C249.61,247.24 250.45,248.02 251.18,247.78 C252.09,247.48 252.85,243.49 253.63,234.92 C254.26,228.09 255.10,221.49 255.50,220.25 C256.27,217.88 257.95,217.35 259.56,218.96 C260.12,219.52 261.10,219.56 261.94,219.04 C263.12,218.31 263.16,217.47 262.18,214.21 C259.60,205.58 261.50,191.37 266.18,184.34 C267.46,182.43 270.19,179.98 272.25,178.91 C278.03,175.90 276.87,173.00 269.89,173.00 C264.81,173.00 265.16,168.81 270.73,162.83 C272.10,161.36 272.92,159.68 272.55,159.08 C271.74,157.77 269.00,157.64 269.00,158.90 C269.00,159.40 267.63,160.28 265.96,160.86 C263.21,161.82 262.82,161.69 261.80,159.46 C260.72,157.10 259.86,156.60 257.35,156.90 C256.11,157.05 254.45,150.68 253.47,142.00 C253.13,138.98 252.63,135.71 252.36,134.75 C251.79,132.73 249.44,132.42 248.59,134.25 C247.92,135.70 248.88,122.63 249.70,119.18 C250.84,114.38 252.13,119.10 254.17,135.59 C255.33,144.89 256.67,152.93 257.15,153.46 C257.68,154.05 258.61,153.57 259.57,152.21 C262.04,148.68 263.00,149.61 263.00,155.53 L 263.00 161.05 L 265.75 159.49 C267.26,158.63 270.52,156.63 273.00,155.04 C281.09,149.86 281.09,151.66 273.00,162.39 C269.73,166.73 267.29,170.66 267.59,171.14 C267.88,171.61 271.35,172.01 275.31,172.02 C284.38,172.03 286.41,173.10 281.67,175.35 C279.76,176.26 277.89,177.00 277.51,177.00 C277.14,177.00 274.83,178.43 272.40,180.18 C262.81,187.07 260.29,198.69 264.25,217.75 C265.53,223.94 266.26,229.00 265.87,229.00 C265.18,229.00 263.82,227.39 259.54,221.51 C257.77,219.07 257.52,218.99 256.86,220.66 C255.66,223.72 255.91,227.00 257.35,227.00 C257.40,227.00 257.47,227.00 257.53,227.01 ZM 285.51 302.90 C279.43,306.10 277.27,305.72 276.12,301.25 C273.36,290.55 272.03,279.00 273.55,279.00 C275.29,279.00 280.12,282.35 281.13,284.26 C281.79,285.49 284.58,289.10 287.34,292.28 C292.96,298.76 292.92,299.01 285.51,302.90 ZM 290.35 297.72 C288.71,294.94 277.73,283.11 276.29,282.56 C274.98,282.06 274.83,282.64 275.30,286.23 C276.24,293.39 278.07,303.31 278.60,304.17 C279.45,305.53 291.17,299.10 290.35,297.72 ZM 235.93 185.89 C237.72,188.68 239.01,191.47 238.80,192.10 C238.59,192.73 237.57,191.37 236.53,189.08 C234.28,184.08 229.78,179.94 222.71,176.35 C218.22,174.07 217.78,173.60 219.50,172.92 C220.60,172.49 224.29,172.11 227.69,172.07 C231.10,172.03 234.12,171.62 234.41,171.15 C234.69,170.69 231.96,166.40 228.33,161.62 C224.71,156.84 222.00,152.66 222.33,152.34 C222.65,152.01 226.43,153.81 230.71,156.34 L 238.50 160.94 L 239.10 148.75 L 241.55 151.04 C242.89,152.31 244.27,153.06 244.61,152.72 C244.95,152.38 245.84,148.37 246.60,143.80 L 247.97 135.50 L 247.44 142.50 C246.82,150.79 245.25,157.27 244.04,156.53 C242.56,155.61 240.00,157.13 240.00,158.94 C240.00,159.89 239.73,160.94 239.40,161.27 C238.68,161.99 234.17,160.17 231.81,158.21 C230.15,156.83 228.00,157.27 228.00,159.00 C228.00,159.48 229.82,161.98 232.05,164.56 C237.10,170.39 236.92,172.39 231.32,172.80 C229.03,172.97 226.64,173.73 226.00,174.49 C225.08,175.60 225.64,176.38 228.76,178.35 C230.92,179.71 234.14,183.10 235.93,185.89 ZM 283.81 265.75 C283.79,265.60 283.76,265.44 283.73,265.28 L 283.55 263.79 C283.05,259.48 281.42,253.79 279.36,248.92 C281.85,253.45 282.31,249.86 279.63,242.72 C279.43,242.19 279.24,241.66 279.04,241.13 C280.58,245.29 282.33,249.43 284.27,253.46 L 284.27 253.46 C286.94,259.16 289.79,264.10 292.77,268.16 C291.66,266.73 290.72,265.40 290.00,264.21 C286.58,258.52 285.00,258.77 285.00,265.00 C285.00,267.75 284.59,270.00 284.08,270.00 C283.58,270.00 281.29,268.20 279.00,266.00 C276.71,263.80 274.54,262.00 274.17,261.99 C273.80,261.99 272.73,260.64 271.80,258.99 C270.21,256.20 266.76,254.94 265.66,256.75 C265.14,257.61 261.51,275.66 259.28,288.23 L 259.30 288.09 C260.14,283.25 261.18,277.51 261.94,273.50 C262.99,268.00 264.13,260.91 264.49,257.75 C264.87,254.44 265.63,252.00 266.30,252.00 C266.94,252.00 271.20,255.71 275.78,260.25 L 281.00 265.42 C282.19,266.84 283.19,267.88 283.59,267.99 L 284.10 268.50 L 283.90 266.79 C283.89,266.48 283.86,266.12 283.81,265.75 ZM 254.39 26.25 C257.31,13.56 258.00,10.20 258.00,8.56 C258.00,7.30 256.67,7.00 251.00,7.00 C245.39,7.00 244.00,7.30 244.00,8.53 C244.00,9.94 246.69,21.46 249.07,30.25 C250.18,34.37 251.37,34.97 252.66,32.03 C252.02,33.62 251.54,34.33 251.04,34.73 C249.76,35.75 249.73,36.12 250.86,36.86 C251.76,37.45 251.86,37.97 251.15,38.41 C249.95,39.15 247.00,34.07 247.00,31.27 C247.00,30.26 246.32,26.98 245.50,23.97 C242.95,14.69 241.81,7.79 242.68,6.92 C243.86,5.74 257.92,5.52 259.05,6.65 C259.64,7.24 259.46,9.46 258.59,12.55 C255.97,21.80 254.40,27.15 253.30,30.30 C253.65,29.21 254.02,27.86 254.39,26.25 ZM 251.57 60.32 C251.61,60.44 251.66,60.54 251.70,60.64 C251.07,59.62 250.45,59.25 250.03,60.00 C248.79,62.18 245.59,85.20 245.44,92.44 C245.13,88.20 244.00,86.21 243.99,90.58 C243.99,92.19 243.59,95.07 243.09,97.00 C242.80,98.15 242.18,101.37 241.45,105.39 C242.03,101.96 242.49,99.29 242.65,98.33 C243.13,95.52 242.82,94.96 239.94,93.47 C239.55,93.27 239.15,93.09 238.74,92.94 C239.35,93.09 239.97,93.27 240.62,93.48 C242.57,94.11 242.75,93.79 242.83,89.62 C242.88,87.12 243.59,82.47 244.41,79.29 C245.23,76.10 246.16,71.03 246.49,68.00 C247.21,61.38 250.02,51.00 251.09,51.00 C252.29,51.00 254.00,60.81 254.06,68.00 C254.06,68.41 254.07,68.87 254.08,69.39 C253.93,66.66 253.12,63.59 252.22,61.63 C252.74,62.27 252.84,60.78 252.34,57.70 C251.78,54.27 250.02,52.43 249.99,55.25 C249.98,55.94 249.71,57.62 249.40,59.00 C248.96,60.91 249.07,61.15 249.86,60.03 C250.75,58.76 250.99,58.80 251.57,60.32 ZM 247.38 228.25 C247.65,230.31 247.45,232.00 246.94,232.00 C246.42,232.00 245.97,229.86 245.93,227.25 C245.89,224.64 245.52,221.62 245.10,220.55 C244.43,218.84 243.86,219.24 240.45,223.80 C234.42,231.88 234.24,231.29 238.01,216.00 C239.63,209.44 239.79,209.14 239.32,213.60 C238.89,217.66 239.10,218.83 240.36,219.31 C241.23,219.64 242.20,219.48 242.53,218.96 C242.85,218.43 243.75,218.00 244.51,218.00 C245.85,218.00 246.21,219.27 247.38,228.25 ZM 218.02 253.79 C219.04,251.65 219.96,249.52 220.67,247.71 C222.69,242.48 224.98,235.27 226.95,228.27 C227.24,227.23 227.53,226.20 227.81,225.18 C225.95,232.27 223.77,239.60 222.09,244.00 C221.97,244.33 221.85,244.64 221.74,244.94 C220.29,248.73 219.93,249.69 220.20,249.93 C220.29,250.01 220.46,250.01 220.68,250.00 C220.73,250.00 220.78,250.00 220.84,250.00 C221.30,250.00 222.27,248.09 222.99,245.75 C223.42,244.37 224.24,242.32 225.17,240.28 C220.96,250.54 217.30,267.00 219.75,267.00 C219.78,267.00 219.81,266.99 219.85,266.98 C219.86,266.98 219.87,266.98 219.87,266.98 C218.74,267.62 218.09,267.49 217.40,266.91 C216.58,266.24 216.49,264.80 217.09,262.22 C218.69,255.33 217.98,255.47 213.13,263.00 C213.00,263.21 212.86,263.42 212.71,263.63 C212.73,263.61 212.74,263.59 212.75,263.57 C213.08,263.07 213.42,262.51 213.78,261.90 C216.01,258.61 217.56,255.75 218.02,253.79 ZM 406.14 322.28 C393.38,328.73 380.78,332.45 366.97,333.79 C372.18,333.19 377.13,332.43 380.50,331.59 C389.54,329.36 398.14,326.23 406.14,322.28 ZM 219.53 118.24 C217.19,127.84 215.01,137.34 215.25,137.53 C214.84,137.20 217.03,127.87 219.53,118.24 ZM 254.11 70.22 C254.25,74.35 254.67,80.91 255.15,86.28 C256.19,97.87 255.80,103.61 254.05,102.53 C255.80,103.61 256.19,97.87 255.15,86.28 C254.56,79.80 254.10,72.64 254.11,70.37 C254.11,70.32 254.11,70.27 254.11,70.22 ZM 245.20 232.46 C244.30,228.50 243.42,226.20 242.42,225.38 C243.50,226.15 244.40,228.47 245.20,232.46 ZM 277.66 245.24 C276.74,243.18 275.60,239.86 274.97,237.36 C274.27,234.57 272.98,231.64 271.89,229.89 C272.98,231.63 274.27,234.55 274.99,237.34 C275.55,239.52 276.63,242.69 277.66,245.24 ZM 251.62 327.99 C251.25,328.42 250.90,328.23 250.47,327.80 C250.43,327.76 250.36,327.57 250.27,327.23 C250.55,327.66 250.88,327.90 251.20,327.95 C251.34,328.02 251.48,328.03 251.62,327.99 ZM 252.52 104.92 C251.81,108.15 250.47,109.72 248.95,109.32 C250.33,109.59 251.79,108.22 252.52,104.92 ZM 324.55 297.61 C322.56,295.37 320.30,293.32 317.50,291.10 C320.24,293.23 322.52,295.28 324.55,297.61 ZM 424.11 310.38 C428.01,307.26 431.00,304.50 431.00,303.75 C431.00,304.53 428.04,307.26 424.11,310.38 ZM 228.61 233.32 C229.44,231.46 230.00,229.83 230.00,229.14 C230.00,228.10 230.65,226.71 231.44,226.05 C230.65,226.71 230.00,228.12 230.00,229.19 C230.00,229.96 229.43,231.60 228.61,233.32 ZM 274.30 225.51 C274.83,227.75 275.43,230.00 276.10,232.28 C275.33,229.68 274.65,227.15 274.07,224.68 C274.15,224.96 274.22,225.24 274.30,225.51 ZM 242.74 288.64 C242.45,286.98 242.18,285.42 241.94,284.00 C241.35,280.42 240.24,274.12 239.47,270.00 C240.24,274.12 241.36,280.42 241.95,284.00 C242.14,285.10 242.36,286.38 242.60,287.80 C242.65,288.09 242.69,288.37 242.74,288.64 ZM 246.31 105.93 C246.61,106.96 247.02,107.77 247.49,108.35 C246.96,107.78 246.58,107.11 246.31,105.93 ZM 342.86 334.50 L 342.74 334.50 L 342.23 333.26 C342.47,333.81 342.62,334.15 342.68,334.25 C342.69,334.26 342.70,334.28 342.71,334.29 C342.74,334.34 342.76,334.37 342.77,334.40 C342.79,334.43 342.82,334.47 342.86,334.50 ZM 231.68 92.70 C230.84,92.95 230.02,93.30 229.25,93.75 C230.01,93.28 230.82,92.93 231.68,92.70 ZM 262.08 228.72 C263.75,229.61 265.33,230.69 266.03,231.53 C265.36,230.72 263.75,229.63 262.08,228.72 ZM 234.89 254.41 C236.21,254.30 236.91,255.54 237.37,258.07 C236.91,255.55 236.20,254.32 234.89,254.41 ZM 251.22 267.30 C251.19,267.40 251.17,267.47 251.15,267.50 C251.10,267.57 251.05,267.57 250.99,267.50 L 251.00 267.50 C251.08,267.45 251.15,267.39 251.22,267.30 ZM 271.58 199.65 C271.61,198.26 271.68,197.14 271.79,196.21 C271.68,197.12 271.62,198.20 271.59,199.55 C271.59,199.58 271.58,199.62 271.58,199.65 ZM 237.15 127.92 L 237.15 127.92 C237.13,127.96 237.10,127.99 237.08,127.99 L 237.08 127.99 C237.10,127.98 237.12,127.96 237.15,127.92 Z" fill="rgb(249,237,198)"/>
<path d="M 231.00 144.17 C231.00,143.19 230.87,142.50 230.61,142.08 C230.31,139.90 229.80,134.44 229.46,129.75 C228.91,122.17 229.03,121.00 230.40,121.00 C231.27,121.00 233.00,122.57 234.24,124.49 C234.48,124.85 234.71,125.20 234.94,125.53 C235.03,125.68 235.13,125.84 235.24,126.01 C235.78,126.87 236.27,127.44 236.68,127.72 C236.86,127.89 237.00,127.99 237.07,127.99 L 237.08 127.99 L 237.08 127.99 C237.10,127.99 237.13,127.96 237.15,127.92 C237.68,127.98 238.00,127.38 238.00,126.12 C238.00,125.87 237.95,125.61 237.86,125.37 C238.40,122.95 239.15,119.09 239.88,114.75 C240.43,111.48 240.98,108.19 241.45,105.39 C242.18,101.37 242.80,98.15 243.09,97.00 C243.59,95.07 243.99,92.19 243.99,90.58 C244.00,86.21 245.13,88.20 245.44,92.44 C245.43,92.84 245.43,93.20 245.44,93.50 C245.54,96.25 245.71,100.38 245.81,102.68 C245.87,103.93 246.05,105.01 246.31,105.93 C246.58,107.11 246.96,107.78 247.49,108.35 C247.94,108.89 248.44,109.22 248.95,109.32 C250.47,109.72 251.81,108.15 252.52,104.92 C252.87,103.31 253.56,102.23 254.05,102.53 L 254.06 102.53 C254.77,102.97 255.26,102.27 255.51,100.48 C255.88,97.91 255.76,93.11 255.15,86.28 C254.67,80.91 254.25,74.35 254.11,70.22 C254.11,69.95 254.10,69.67 254.08,69.39 C254.07,68.87 254.06,68.41 254.06,68.00 C254.02,63.53 253.35,58.05 252.55,54.54 C253.32,57.70 254.00,62.31 254.00,65.49 C254.00,67.91 254.45,70.16 255.00,70.50 C255.55,70.84 256.03,72.55 256.06,74.31 C256.09,76.06 256.92,81.10 257.90,85.50 C259.42,92.30 259.98,93.46 261.60,93.22 C262.16,93.14 263.14,92.99 264.26,92.81 C263.63,93.00 263.00,93.23 262.38,93.49 C258.91,94.94 258.84,95.08 259.47,99.24 C260.78,107.93 262.82,118.80 264.07,124.12 C264.02,124.30 264.00,124.51 264.00,124.75 C264.00,125.80 264.29,126.95 264.64,127.31 C265.46,128.13 266.37,127.53 266.57,126.33 C267.04,125.76 267.57,124.98 268.07,124.09 C272.21,116.71 273.11,118.48 272.36,132.50 C271.82,142.63 271.95,145.00 273.04,145.00 C273.78,145.00 277.48,143.16 281.27,140.91 C286.61,137.74 287.99,136.45 287.45,135.16 C287.36,134.96 287.20,134.41 286.96,133.57 C287.35,134.47 287.68,134.81 288.08,134.93 C288.32,135.00 288.57,135.00 288.88,135.00 C288.92,135.00 288.96,135.00 289.00,135.00 C292.84,135.00 292.97,132.21 289.57,117.86 C291.48,125.68 293.09,131.49 293.65,132.05 C294.20,132.60 297.03,131.36 300.77,128.92 C304.18,126.69 307.42,125.14 307.96,125.48 C308.52,125.82 306.65,129.35 303.73,133.50 C296.83,143.28 295.23,146.34 296.08,149.08 C295.37,148.05 294.64,148.06 293.69,148.84 C292.80,149.58 292.21,150.66 291.92,151.94 C291.81,151.78 291.57,151.81 291.22,152.00 C291.20,152.00 291.18,152.00 291.16,152.00 C290.94,152.00 290.38,152.51 289.64,153.32 C288.62,154.33 287.37,155.83 286.06,157.66 C285.98,157.77 285.91,157.87 285.83,157.97 L 285.83 157.97 C283.81,160.64 282.00,163.33 282.00,163.94 C282.00,164.02 282.05,164.10 282.15,164.18 C282.20,164.58 282.59,164.70 283.25,164.74 C283.37,164.74 283.71,164.77 284.23,164.82 L 284.25 164.83 C292.78,165.82 299.45,166.56 304.59,167.06 C310.19,167.75 314.69,168.36 314.83,168.50 C316.35,170.02 312.68,172.20 302.35,175.93 C296.08,178.19 291.09,180.12 287.14,181.87 C283.23,183.53 280.52,184.91 278.51,186.28 L 278.51 186.28 C278.45,186.32 278.39,186.36 278.34,186.40 C278.32,186.41 278.30,186.42 278.28,186.44 C277.16,187.22 276.26,188.00 275.49,188.83 L 275.43 188.50 L 274.26 190.26 C274.17,190.38 274.08,190.51 274.00,190.63 C272.91,192.25 272.30,193.38 271.96,195.15 L 271.96 195.15 C271.89,195.48 271.84,195.83 271.79,196.21 C271.68,197.14 271.61,198.26 271.58,199.65 C271.08,206.68 271.88,216.39 273.89,224.00 C273.95,224.23 274.01,224.45 274.07,224.68 C274.65,227.15 275.33,229.68 276.10,232.28 C276.97,235.22 277.95,238.18 279.04,241.13 L 279.04 241.14 C279.24,241.66 279.43,242.19 279.63,242.72 C282.31,249.86 281.85,253.45 279.36,248.92 C278.93,247.90 278.48,246.92 278.02,246.00 C277.90,245.77 277.79,245.52 277.66,245.24 C276.63,242.69 275.55,239.52 274.99,237.34 C274.27,234.55 272.98,231.63 271.89,229.89 C270.88,228.26 270.04,227.65 270.02,229.13 C269.99,231.79 267.49,233.30 266.03,231.53 C265.33,230.69 263.75,229.62 262.08,228.72 L 262.08 228.72 C260.31,227.76 258.46,227.00 257.57,227.00 C257.56,227.00 257.54,227.00 257.53,227.01 C257.47,227.00 257.40,227.00 257.35,227.00 C255.91,227.00 255.66,223.72 256.86,220.66 C257.52,218.99 257.77,219.07 259.54,221.51 C263.82,227.39 265.18,229.00 265.87,229.00 C266.26,229.00 265.53,223.94 264.25,217.75 C260.29,198.69 262.81,187.07 272.40,180.18 C274.83,178.43 277.14,177.00 277.51,177.00 C277.89,177.00 279.76,176.26 281.67,175.35 C286.41,173.10 284.38,172.03 275.31,172.02 C271.35,172.01 267.88,171.61 267.59,171.14 C267.29,170.66 269.73,166.73 273.00,162.39 C281.09,151.66 281.09,149.86 273.00,155.04 C270.52,156.63 267.26,158.63 265.75,159.49 L 263.00 161.05 L 263.00 155.53 C263.00,149.61 262.04,148.68 259.57,152.21 C258.61,153.57 257.68,154.05 257.15,153.46 C256.67,152.93 255.33,144.89 254.17,135.59 C252.13,119.10 250.84,114.38 249.70,119.18 C248.88,122.63 247.92,135.70 248.59,134.25 C248.89,133.59 249.39,133.21 249.93,133.09 C248.75,133.52 248.28,135.79 247.49,143.50 C247.17,146.56 246.74,149.31 246.27,151.50 C246.76,149.07 247.18,145.94 247.44,142.50 L 247.97 135.50 L 246.60 143.80 C245.84,148.37 244.95,152.38 244.61,152.72 C244.27,153.06 242.89,152.31 241.55,151.04 L 239.10 148.75 L 238.50 160.94 L 230.71 156.34 C226.43,153.81 222.65,152.01 222.33,152.34 C222.00,152.66 224.71,156.84 228.33,161.62 C231.96,166.40 234.69,170.69 234.41,171.15 C234.12,171.62 231.10,172.03 227.69,172.07 C224.29,172.11 220.60,172.49 219.50,172.92 C217.78,173.60 218.22,174.07 222.71,176.35 C229.78,179.94 234.28,184.08 236.53,189.08 C237.54,191.31 238.54,192.67 238.78,192.15 C240.59,197.73 241.07,204.22 239.94,210.84 C238.88,217.03 238.90,218.32 240.08,219.05 C240.90,219.55 241.89,219.51 242.44,218.96 C242.60,218.80 242.76,218.66 242.92,218.54 C242.75,218.67 242.62,218.81 242.53,218.96 C242.20,219.48 241.23,219.64 240.36,219.31 C239.10,218.83 238.89,217.66 239.32,213.60 C239.79,209.14 239.63,209.44 238.01,216.00 C234.24,231.29 234.42,231.88 240.45,223.80 C243.86,219.24 244.43,218.84 245.10,220.55 C245.52,221.62 245.89,224.64 245.93,227.25 C245.97,229.86 246.42,232.00 246.94,232.00 C247.19,232.00 247.36,231.60 247.45,230.96 C247.50,231.64 247.54,232.32 247.59,233.00 C247.90,237.91 248.46,242.82 248.91,244.97 C248.63,244.47 248.32,244.49 247.99,245.01 C247.82,245.29 247.57,244.88 247.29,243.96 C247.04,242.35 246.79,240.83 246.57,239.50 C246.09,236.74 245.64,234.40 245.20,232.46 C244.40,228.47 243.50,226.15 242.42,225.38 C241.21,224.39 239.83,225.55 238.00,228.50 C236.81,230.43 235.47,232.00 235.03,232.00 C234.59,232.00 233.92,230.39 233.55,228.43 C233.00,225.46 232.64,225.06 231.44,226.05 L 231.44 226.05 L 231.44 226.05 C230.65,226.71 230.00,228.10 230.00,229.14 C230.00,229.83 229.44,231.46 228.61,233.32 C228.28,234.00 227.91,234.70 227.53,235.37 C226.75,236.70 225.95,238.38 225.17,240.28 C224.24,242.32 223.42,244.37 222.99,245.75 C222.27,248.09 221.30,250.00 220.84,250.00 C220.78,250.00 220.73,250.00 220.68,250.00 C220.46,250.01 220.29,250.01 220.20,249.93 C219.93,249.69 220.29,248.73 221.74,244.94 C221.85,244.64 221.97,244.33 222.09,244.00 C223.77,239.60 225.95,232.27 227.81,225.18 C229.69,218.18 231.16,211.73 231.57,208.10 C231.69,207.01 231.76,205.92 231.78,204.84 C231.85,202.36 231.65,200.08 231.17,197.99 C231.00,197.20 230.81,196.42 230.59,195.69 C229.84,193.21 228.75,191.18 227.41,189.92 L 226.75 189.30 C224.77,187.06 222.19,185.16 219.00,183.55 C215.59,181.83 201.52,176.45 191.68,173.01 C190.11,172.46 188.64,171.96 187.34,171.53 C187.16,171.21 187.09,170.76 187.19,170.25 C187.47,168.77 189.87,168.24 202.91,166.79 C204.46,166.63 206.03,166.46 207.56,166.30 C210.01,166.12 213.03,165.78 216.11,165.31 C218.81,164.97 220.62,164.70 220.74,164.58 C220.77,164.55 220.66,164.32 220.43,163.94 C220.38,163.61 220.06,163.17 219.54,162.50 C219.44,162.36 219.34,162.23 219.24,162.11 C218.68,161.28 217.98,160.27 217.20,159.19 C216.94,158.81 216.65,158.42 216.36,158.01 L 214.76 155.82 C214.91,155.77 215.00,155.71 215.00,155.65 C215.00,155.48 214.21,154.62 213.21,153.69 L 211.62 151.51 L 211.44 152.25 C211.02,152.10 211.00,152.61 211.00,153.85 C211.00,153.89 211.00,153.93 211.00,153.97 L 210.74 155.01 C210.63,155.44 210.51,155.85 210.39,156.23 C210.81,153.69 210.18,150.71 208.54,148.66 L 206.28 145.82 L 205.14 150.35 C205.08,150.59 205.02,150.83 204.97,151.06 C204.99,150.93 205.01,150.81 205.03,150.68 C205.07,150.51 205.11,150.34 205.15,150.17 C205.96,146.67 206.07,145.37 205.23,143.66 C204.88,142.87 204.35,142.03 203.59,141.00 L 203.53 140.92 C202.20,138.91 200.40,136.36 198.40,133.61 C196.11,130.09 195.34,128.26 195.87,127.73 C196.44,127.16 198.54,127.66 201.18,128.86 C201.28,128.92 201.38,128.97 201.48,129.02 C203.14,129.89 205.49,131.23 206.70,132.01 C207.91,132.78 209.06,133.21 209.27,132.97 C209.28,132.96 209.28,132.96 209.28,132.96 C209.44,132.76 210.12,130.04 211.36,124.67 C210.52,128.67 210.00,131.44 210.00,131.99 C210.00,134.14 213.77,136.67 214.99,135.34 C215.19,135.12 215.75,133.29 216.50,130.49 C215.56,134.55 215.03,137.35 215.25,137.53 C215.39,137.65 216.95,138.48 218.72,139.38 C220.49,140.29 223.60,142.14 225.61,143.51 C226.69,144.25 227.57,144.81 228.28,145.19 C230.27,146.41 231.00,146.13 231.00,144.17 ZM 218.59 151.62 C218.04,148.69 218.26,148.16 220.23,147.61 C222.39,147.01 222.28,146.78 218.00,142.92 C211.60,137.15 210.97,136.68 207.03,134.91 C201.25,132.32 200.47,133.70 204.96,138.57 C207.18,140.98 209.00,143.87 209.00,144.98 C209.00,146.10 209.66,147.00 210.49,147.00 C211.31,147.00 213.11,148.80 214.50,151.00 C217.64,155.98 219.46,156.25 218.59,151.62 ZM 214.00 174.62 C214.00,173.31 214.68,171.68 215.50,171.00 C218.25,168.72 217.06,168.24 209.75,168.65 C195.69,169.43 192.34,170.89 199.75,172.98 C201.81,173.57 204.62,174.69 206.00,175.49 C207.38,176.28 209.74,176.95 211.25,176.96 C213.49,176.99 214.00,176.56 214.00,174.62 ZM 288.15 37.00 C287.88,38.78 285.48,38.06 281.20,34.91 C276.73,31.63 275.73,29.00 278.96,29.00 C281.23,29.00 288.55,33.71 288.40,35.07 C288.35,35.58 288.23,36.45 288.15,37.00 ZM 251.57 60.32 C250.99,58.80 250.75,58.76 249.86,60.03 C249.07,61.15 248.96,60.91 249.40,59.00 C249.71,57.62 249.98,55.94 249.99,55.25 C250.02,52.43 251.78,54.27 252.34,57.70 C252.84,60.78 252.74,62.27 252.22,61.63 C252.04,61.26 251.87,60.93 251.70,60.64 C251.66,60.54 251.61,60.44 251.57,60.32 ZM 226.33 167.50 C225.98,165.49 222.99,164.42 222.04,165.95 C221.54,166.75 221.37,167.79 221.66,168.26 C222.38,169.43 226.54,168.75 226.33,167.50 ZM 298.77 136.20 C299.58,133.76 296.06,135.10 293.98,138.03 L 291.82 141.06 L 295.09 139.23 C296.89,138.23 298.55,136.86 298.77,136.20 ZM 253.46 30.89 C252.88,33.64 252.12,36.27 251.56,37.54 C251.45,37.32 251.22,37.10 250.86,36.86 C249.73,36.12 249.76,35.75 251.04,34.73 C251.54,34.33 252.02,33.62 252.66,32.03 C252.87,31.55 253.08,30.97 253.30,30.30 C253.62,29.40 253.97,28.31 254.38,27.00 C254.02,28.42 253.70,29.76 253.46,30.89 ZM 252.52 326.75 C252.65,326.39 253.00,324.69 253.46,322.25 L 253.46 322.24 C253.66,321.21 253.87,320.04 254.10,318.78 C253.39,322.90 252.81,326.26 252.52,327.87 C251.97,330.88 251.19,331.69 250.56,329.89 C250.45,329.59 250.11,327.99 249.62,325.53 C249.64,325.61 249.66,325.68 249.67,325.75 C249.82,326.37 250.03,326.86 250.27,327.23 C250.36,327.57 250.43,327.76 250.47,327.80 C250.90,328.23 251.25,328.42 251.62,327.99 C251.95,327.89 252.25,327.48 252.52,326.75 ZM 227.36 149.50 C227.05,148.68 226.10,148.00 225.27,148.00 C224.04,148.00 223.99,148.28 225.00,149.50 C225.68,150.32 226.63,151.00 227.09,151.00 C227.56,151.00 227.68,150.32 227.36,149.50 ZM 251.22 267.30 C251.15,267.39 251.08,267.45 251.00,267.50 L 250.99 267.50 C250.77,267.25 250.47,266.05 250.15,264.23 C250.32,263.40 250.64,262.72 251.00,262.50 C251.42,262.24 251.77,262.62 251.92,263.42 C251.61,265.42 251.37,266.79 251.22,267.30 ZM 222.60 159.27 C221.59,158.25 220.75,159.78 221.58,161.13 C222.21,162.15 222.45,162.15 222.79,161.14 C223.02,160.44 222.94,159.60 222.60,159.27 ZM 219.28 119.24 C219.33,118.99 219.39,118.75 219.45,118.50 C221.88,107.94 223.13,102.76 224.34,99.71 C223.39,102.81 221.41,110.56 219.53,118.24 C219.45,118.57 219.36,118.91 219.28,119.24 ZM 216.76 100.57 C217.64,96.60 218.60,92.24 219.63,87.50 C222.56,74.17 222.97,70.91 222.09,67.94 C218.90,57.18 204.14,56.07 199.48,66.24 C204.08,56.19 218.57,57.12 222.06,67.68 C223.16,71.03 222.82,73.97 216.76,100.57 ZM 257.40 16.72 C257.77,15.42 258.17,14.03 258.59,12.55 C259.33,9.93 259.57,7.94 259.27,7.03 C259.99,8.13 259.46,10.45 257.40,16.72 ZM 235.93 185.89 C234.14,183.10 230.92,179.71 228.76,178.35 C231.85,180.30 234.40,183.12 236.34,186.54 C236.21,186.32 236.07,186.11 235.93,185.89 ZM 280.08 106.22 C277.56,97.28 275.81,94.56 273.20,94.18 C272.71,94.11 272.25,93.97 271.89,93.81 C272.21,93.93 272.60,94.00 273.01,94.00 C275.60,94.00 277.62,97.35 280.08,106.22 ZM 246.96 225.09 C246.43,221.35 246.07,219.53 245.60,218.69 C245.92,219.06 246.18,219.58 246.34,220.25 C246.50,220.88 246.73,222.70 246.96,225.09 ZM 258.47 6.38 C257.08,6.00 253.73,5.86 250.46,5.93 C253.84,5.75 257.12,5.87 258.09,6.23 C258.22,6.28 258.35,6.33 258.47,6.38 ZM 251.23 247.76 C252.16,246.63 252.95,242.37 253.63,234.92 C252.86,243.36 252.12,247.35 251.23,247.76 ZM 338.03 323.00 L 342.23 333.26 C341.46,331.47 339.84,327.52 338.10,323.17 C337.95,322.79 337.80,322.43 337.65,322.06 C335.11,315.89 333.06,311.19 331.07,307.38 C333.11,311.25 335.19,315.98 337.65,322.06 C337.78,322.37 337.91,322.68 338.03,323.00 ZM 297.81 159.80 C298.49,158.62 298.72,156.70 298.06,154.33 C297.82,153.45 297.59,152.68 297.37,152.00 C298.73,155.45 298.86,158.28 297.81,159.80 ZM 285.03 98.17 C281.98,84.36 280.00,73.91 280.00,71.25 C280.00,73.95 282.30,85.70 285.03,98.17 ZM 291.75 153.21 C291.67,154.48 291.87,155.87 292.35,157.24 C291.73,155.73 291.39,154.15 291.71,153.30 C291.73,153.27 291.74,153.24 291.75,153.21 ZM 244.64 6.34 C243.63,6.50 242.91,6.69 242.68,6.92 C242.63,6.97 242.58,7.05 242.54,7.16 L 242.50 6.50 ZM 243.09 13.83 C243.40,15.51 243.83,17.44 244.35,19.56 C243.86,18.04 243.38,15.85 243.09,13.83 ZM 248.74 36.35 C249.43,37.50 250.20,38.36 250.77,38.47 C250.17,38.59 249.43,37.77 248.74,36.35 ZM 246.33 27.32 C246.70,28.94 246.95,30.34 246.99,31.06 C246.82,30.29 246.68,29.49 246.56,28.67 C246.49,28.25 246.42,27.79 246.33,27.32 ZM 238.47 92.84 C239.21,92.98 239.93,93.17 240.62,93.42 C241.50,93.73 242.02,93.84 242.33,93.49 C242.01,93.85 241.50,93.76 240.62,93.48 C239.97,93.27 239.35,93.09 238.74,92.94 C238.65,92.90 238.56,92.87 238.47,92.84 ZM 251.83 133.75 C252.06,134.01 252.25,134.35 252.36,134.75 C252.45,135.08 252.58,135.69 252.71,136.48 C252.45,135.14 252.18,134.28 251.83,133.75 ZM 294.35 160.49 C294.66,160.73 294.96,160.90 295.27,161.00 C294.98,160.97 294.67,160.79 294.35,160.49 ZM 227.59 94.91 L 227.63 94.87 C227.98,94.54 228.40,94.25 228.86,93.99 C228.42,94.26 228.00,94.57 227.59,94.91 ZM 271.11 93.24 C271.04,93.14 271.00,93.03 271.00,92.93 C271.00,92.61 270.77,92.38 270.36,92.24 C270.79,92.35 271.00,92.56 271.00,92.87 C271.00,93.00 271.04,93.12 271.11,93.24 ZM 251.08 51.00 C250.52,51.02 249.49,53.85 248.53,57.48 C249.49,53.84 250.52,51.00 251.08,51.00 ZM 259.28 288.25 L 259.28 288.23 C260.01,284.13 260.89,279.44 261.76,274.96 C260.89,279.45 260.01,284.15 259.28,288.25 ZM 244.07 218.04 C243.70,218.11 243.33,218.26 243.04,218.46 C243.39,218.22 243.74,218.09 244.07,218.04 Z" fill="rgb(240,200,113)"/>
</g>
</svg>